<svg xmlns="http://www.w3.org/2000/svg" width="1080" height="1080" viewBox="0 0 1080 1080">
  <defs>
    <style>
      .cls-1 {
        fill: #fff;
        stroke: #fff;
        stroke-width: 1px;
        fill-rule: evenodd;
      }
    </style>
  </defs>
  <path id="Logo_1" data-name="Logo 1" class="cls-1" d="M529.99,0.284c5.6-.06,15.466-0.829,20.006.455h14.549V1.194c2.492,0.705,6.428-.171,8.639.455H580V2.1h5.911V2.558h5V3.012l9.093,0.455V3.922H604.1V4.377h3.637C612.587,5.789,618.9,5.706,623.652,7.1h3.183V7.56h2.728V8.014h2.728V8.469h2.728c2.043,0.627,5.235,1.181,7.275,1.819h2.273v0.455l6.82,0.909c5.605,1.773,12.292,2.694,17.732,4.547l12.731,2.728c10.48,3.782,22.372,6.134,32.282,10.458l4.092,0.909V30.75l4.092,0.91v0.455h0.909v0.455h1.364v0.455l2.728,0.455v0.455h0.91v0.455l2.728,0.455V35.3h0.909v0.455l2.728,0.455v0.455H735.5v0.455h1.364v0.455h0.91v0.455l2.273,0.455v0.455h1.364V39.39h0.91v0.455h1.364V40.3H744.6v0.455h1.364v0.455l1.819,0.455v0.455h1.364v0.455h0.909v0.455h1.364v0.455l1.819,0.455v0.455H754.6v0.455h0.909V45.3l1.819,0.455V46.21h1.364v0.455H759.6V47.12l1.819,0.455v0.455h1.364v0.455h0.909v0.455H764.6v0.455l2.728,0.909v0.455h1.364v0.455h0.91v0.455l1.818,0.455v0.455h0.91v0.455h0.909v0.455h0.909v0.455h0.91V54.4h0.909V54.85l1.819,0.455v0.455l3.183,0.909,0.454,0.91,1.819,0.455v0.455h0.909v0.455h0.91V59.4h0.909v0.455h0.909v0.455l1.819,0.455v0.455l1.819,0.455v0.455h0.909V62.58h0.909v0.455h0.91V63.49h0.909l0.455,0.909h0.909v0.455h0.909v0.455h0.91v0.455h0.909v0.455h0.909q0.228,0.455.455,0.91h0.909v0.455h0.91v0.455h0.909v0.455h0.909q0.228,0.455.455,0.909h0.909v0.455h0.91V70.31h0.909v0.455h0.909q0.228,0.455.455,0.909H808.7v0.455h0.91l0.454,0.909,2.729,0.909,0.454,0.909,1.819,0.455q0.227,0.455.455,0.91l1.818,0.455,0.455,0.909,1.819,0.455,0.454,0.909,1.819,0.455q0.226,0.455.455,0.91l1.818,0.455v0.455l1.364,0.455,0.455,0.909,1.819,0.455,0.454,0.909h0.91l0.454,0.909h0.91l0.454,0.909h0.91l0.454,0.91,1.819,0.455,0.455,0.909h0.909l0.455,0.909h0.909l0.455,0.909h0.909v0.455l1.364,0.455,0.455,0.909h0.909l0.455,0.909h0.909v0.455l1.364,0.455,0.455,0.909h0.909q0.455,0.682.91,1.364H846.9v0.455l1.364,0.455q0.226,0.455.455,0.909h0.909l0.909,1.364h0.91v0.455l1.364,0.455,0.454,0.909h0.91l0.454,0.909,1.364,0.455,0.91,1.364h0.909q0.226,0.454.455,0.91h0.909l0.455,0.909,1.364,0.455,0.909,1.364h0.909l0.91,1.364h0.909l0.909,1.364h0.91l0.909,1.364h0.909l1.364,1.819h0.91l0.909,1.364h0.909l1.364,1.819h0.91q0.681,0.91,1.364,1.819H876.9l1.364,1.819h0.909l1.365,1.819h0.909q0.909,1.137,1.819,2.273h0.909q0.227,0.456.455,0.91L886,125.785v0.455h0.909l1.819,2.274h0.909l2.273,2.728h0.91l2.728,3.183h0.909l2.728,3.183h0.909l1.819,2.273,5,4.093q2.046,2.273,4.092,4.547c4.2,3.042,7.306,6.85,10.913,10.458,3.461,3.463,7.082,6.42,10,10.459l5.911,5.456v0.91l4.547,4.092v0.91l3.637,3.183V184.9l2.728,2.274v0.909l2.728,2.274v0.909l2.728,2.274v0.909l2.274,1.819v0.909l1.818,1.365v0.909l2.274,1.819v0.909l1.818,1.364v0.91l0.91,0.455q0.226,0.681.454,1.364l1.819,1.364v0.909l1.819,1.364v0.91l1.364,0.909v0.91l1.364,0.909v0.91l1.364,0.909v0.909q0.681,0.456,1.364.91v0.909L974.2,219v0.909l1.364,0.91q0.227,0.681.454,1.364l0.91,0.454v0.91L977.841,224v0.909l1.364,0.909v0.91l0.909,0.455V228.1l1.364,0.909v0.91q0.456,0.227.91,0.455v0.909l0.909,0.455v0.909q0.682,0.454,1.364.91v0.909l0.91,0.455q0.226,0.681.454,1.364h0.455v0.909l0.909,0.455v0.909q0.454,0.228.91,0.455v0.91l0.909,0.454v0.91l0.909,0.454v0.91l0.91,0.455v0.909l0.909,0.455v0.909l0.909,0.455v0.909l0.91,0.455V248.1l0.909,0.455q0.227,0.909.455,1.819l0.909,0.455v0.909l0.909,0.455v0.909l0.91,0.455v0.909H998.3v0.91l0.91,0.455q0.226,0.909.454,1.818h0.455l0.45,1.365c0.31,0.151.61,0.3,0.91,0.454,0.16,0.606.31,1.213,0.46,1.819,0.3,0.152.6,0.3,0.91,0.455l0.45,1.819c0.31,0.151.61,0.3,0.91,0.454,0.15,0.607.31,1.213,0.46,1.819,0.3,0.152.6,0.3,0.91,0.455,0.3,0.909.6,1.819,0.91,2.728l0.9,0.455c0.31,0.909.61,1.819,0.91,2.728,0.31,0.152.61,0.3,0.91,0.455,0.31,0.909.61,1.819,0.91,2.728,0.31,0.152.61,0.3,0.91,0.455,0.15,0.606.31,1.213,0.46,1.819h0.45v0.909h0.46v0.91c0.3,0.151.6,0.3,0.91,0.454v0.91h0.45v0.909h0.45v0.91h0.46v0.909h0.45v0.91c0.31,0.151.61,0.3,0.91,0.454,1.06,2.425,2.13,4.851,3.19,7.276,0.3,0.151.6,0.3,0.91,0.454v0.91h0.45v0.909h0.45v0.91h0.46V296.3h0.45v0.91h0.46v0.909h0.45v0.909h0.46v0.91h0.45v0.909h0.46v0.91h0.45v0.909h0.46l0.45,1.819h0.46V305.4h0.45v1.364h0.46l0.45,1.819h0.45v0.91h0.46V310.4h0.45c0.31,0.91.61,1.819,0.91,2.728h0.46v1.365h0.45V315.4h0.46c0.3,0.909.6,1.819,0.91,2.728h0.45v1.364h0.46v0.91h0.45c0.15,0.606.3,1.213,0.46,1.819h0.45v1.364h0.45V324.5h0.46l0.45,1.819h0.46v1.364h0.45c0.16,0.607.31,1.213,0.46,1.819h0.45v1.364h0.46v0.91h0.45v1.364h0.46l0.45,1.819h0.46v1.364h0.45v0.909h0.46v1.364h0.45v0.91h0.46l0.45,2.273h0.45v1.365h0.46v0.909h0.45c0.16,0.909.31,1.819,0.46,2.728h0.45v0.91h0.46v1.364h0.45v1.364c4.53,10.341,7.87,22.242,11.82,33.194v1.819h0.46v1.364h0.45v1.819h0.46v1.364h0.45v1.364h0.46c0.3,1.667.6,3.335,0.91,5h0.45c0.3,1.667.61,3.335,0.91,5h0.46l0.9,5.457c1.58,4.6,2.59,10.33,4.1,15l0.45,4.547c2.34,7.237,2.77,16.178,5,23.645v2.729c0.74,2.462,1.1,6.173,1.82,8.639q0.225,3.411.46,6.821c1.27,4.423.99,10.518,2.27,15.006v4.547h0.45v5h0.46V498.2h0.45q0.225,7.5.46,15.006h0.45v11.822c1.39,4.986.46,14.06,0.46,20.008,0,3.381.29,7.82-.46,10.458v6.366l-0.45,13.642h-0.46q-0.675,10.684-1.36,21.371h-0.46v4.093h-0.45v4.092h-0.45v3.638h-0.46v3.637q-2.955,17.733-5.91,35.468h-0.45v1.819h-0.46v2.274h-0.45v2.273h-0.46v2.274c-2.3,7.071-3.56,15.4-5.91,22.281-0.61,2.879-1.21,5.76-1.82,8.639h-0.45q-0.915,3.865-1.82,7.73h-0.46c-0.3,1.516-.6,3.032-0.91,4.547h-0.45V701h-0.45v1.364h-0.46v1.364h-0.45c-0.16.909-.31,1.819-0.46,2.728h-0.45v1.819h-0.46c-0.3,1.364-.6,2.728-0.91,4.092h-0.45v1.365h-0.46v0.909h-0.45c-0.15.909-.3,1.819-0.46,2.728h-0.45v1.364h-0.46V720.1h-0.45v1.364h-0.45v1.364h-0.46v0.909h-0.45c-0.31,1.364-.61,2.729-0.91,4.093h-0.46v0.909h-0.45c-0.15.91-.31,1.819-0.46,2.728h-0.45v0.91h-0.46v1.364h-0.45v0.909h-0.46l-0.45,2.729h-0.46v0.909h-0.45v1.364h-0.45c-0.16.758-.31,1.516-0.46,2.274h-0.45v0.909h-0.46V744.2h-0.45c-0.16.607-.31,1.213-0.46,1.819h-0.45v1.364h-0.46v0.91h-0.45v1.364h-0.46l-0.45,1.819h-0.46v1.364h-0.45c-0.15.606-.3,1.213-0.46,1.819h-0.45v1.364h-0.46v0.909h-0.45l-0.45,1.819h-0.46v1.364h-0.45v0.91h-0.46v0.909h-0.45v0.91h-0.46V764.2h-0.45v0.909h-0.46v0.91h-0.45c-0.3.909-.61,1.819-0.91,2.728h-0.46v1.364h-0.45v0.91h-0.46l-0.45,1.818h-0.45v0.91h-0.46v0.909h-0.45v0.91h-0.46v0.909h-0.45v0.91h-0.46c-0.3.909-.6,1.819-0.91,2.728h-0.45c-0.3.909-.61,1.819-0.91,2.728h-0.46l-0.45,1.819h-0.46l-0.45,1.819h-0.45v0.909h-0.46v0.91h-0.45v0.909h-0.46v0.91h-0.45c-0.31.909-.61,1.819-0.91,2.728-0.31.151-.61,0.3-0.91,0.455v0.909h-0.46v0.909h-0.45v0.91h-0.46v0.909h-0.45v0.91h-0.46v0.909l-0.9.455v0.909h-0.46v0.91h-0.45v0.909h-0.46v0.91c-0.3.151-.6,0.3-0.91,0.454-0.3.91-.6,1.819-0.91,2.729-0.3.151-.6,0.3-0.91,0.454-0.3.91-.6,1.819-0.91,2.729-0.3.151-.6,0.3-0.91,0.454l-0.9,2.729c-0.31.151-.61,0.3-0.91,0.454-0.16.607-.31,1.213-0.46,1.819-0.3.152-.6,0.3-0.91,0.455l-0.45,1.819c-0.31.151-.61,0.3-0.91,0.454-0.15.607-.31,1.213-0.46,1.819-0.3.152-.6,0.3-0.91,0.455l-0.45,1.819c-0.3.151-.61,0.3-0.91,0.455v0.909h-0.455v0.909h-0.454q-0.228.683-.455,1.365l-0.909.454q-0.228.91-.455,1.819l-0.909.455v0.909l-0.91.455v0.909l-0.909.455q-0.228.909-.455,1.819l-0.909.455v0.909l-0.909.455v0.909h-0.455q-0.228.683-.455,1.364l-0.909.455v0.91l-0.909.454v0.91l-0.91.454v0.91l-0.909.455v0.909l-0.909.455v0.909l-0.91.455v0.909h-0.454q-0.228.683-.455,1.364l-0.91.455v0.91l-1.364.909v0.909h-0.454q-0.228.683-.455,1.365l-0.909.454v0.91l-0.91.454q-0.227.683-.454,1.365l-1.364.909V855.6l-0.91.455v0.91l-0.909.454q-0.226.683-.455,1.364-0.681.456-1.364,0.91V860.6l-0.909.455v0.909l-1.364.91v0.909l-1.364.91v0.909l-1.364.91v0.909l-1.819,1.364v0.91l-0.909.454q-0.228.682-.455,1.364l-1.818,1.365v0.909l-1.364.909v0.91l-1.819,1.364v0.909L959.2,879.7v0.91l-0.91.454v0.455l-0.909.455v0.909l-0.909.455-0.91,1.364h-0.454v0.91l-2.274,1.818v0.91l-2.728,2.273v0.91l-2.728,2.273v0.91l-3.183,2.728v0.91l-1.818,1.364q-0.682.909-1.364,1.819h-0.455v0.909l-5,4.547v0.91l-9.094,8.639v0.91l-4.546,4.092-4.547,5h-0.909L911,932.448l-2.728,2.274-0.454.909h-0.91l-3.637,4.093H902.82l-0.454.909h-0.91q-1.59,1.818-3.182,3.638h-0.91l-3.182,3.637h-0.91q-1.136,1.365-2.273,2.729H890.09q-0.911,1.136-1.819,2.273h-0.909l-1.819,2.274h-0.909l-1.819,2.273h-0.909l-1.819,2.274h-0.91l-1.364,1.819H876.9l-1.364,1.819h-0.909q-0.682.909-1.364,1.819h-0.91l-0.454.909-1.364.455q-0.683.909-1.364,1.819h-0.91l-0.909,1.364h-0.909l-0.91,1.364h-0.909l-0.909,1.364h-0.91l-0.909,1.364h-0.909l-0.91,1.364-1.364.455-0.454.909h-0.91l-0.454.91h-0.91l-0.909,1.364h-0.909q-0.228.455-.455,0.909h-0.909L851.9,981.1h-0.909v0.454l-1.364.455-0.455.909H848.26l-0.909,1.365h-0.91l-0.454.909-1.365.455V986.1h-0.909q-0.226.455-.455,0.91h-0.909q-0.227.454-.455,0.909h-0.909q-0.227.455-.455,0.91h-0.909q-0.226.454-.455,0.909h-0.909l-0.455.91h-0.909q-0.227.455-.455,0.909h-0.909q-0.226.454-.455,0.909h-0.909q-0.226.455-.455,0.91H832.8q-0.227.454-.455,0.909h-0.909q-0.228.455-.455,0.91l-1.818.454q-0.228.455-.455,0.91H827.8l-0.455.909-1.364.455v0.455l-1.819.454-0.454.91c-0.607.151-1.213,0.3-1.819,0.454v0.46l-1.364.45c-0.152.3-.3,0.61-0.455,0.91l-1.818.45c-0.152.31-.3,0.61-0.455,0.91h-0.909v0.46h-0.91c-0.151.3-.3,0.6-0.454,0.91l-1.819.45c-0.152.31-.3,0.61-0.455,0.91-0.909.3-1.819,0.61-2.728,0.91-0.151.3-.3,0.61-0.455,0.91-0.909.3-1.818,0.61-2.728,0.91-0.151.3-.3,0.61-0.454,0.91-0.909.3-1.819,0.61-2.728,0.91-0.152.3-.3,0.61-0.455,0.91h-0.909v0.45h-0.91v0.46h-0.909v0.45h-0.909c-0.152.31-.3,0.61-0.455,0.91H798.7v0.46h-0.91v0.45h-0.909v0.46h-0.909v0.45h-0.91v0.46h-0.909l-0.455.9c-0.606.16-1.212,0.31-1.818,0.46v0.45h-0.91v0.46h-0.909v0.45h-0.909v0.46h-0.91v0.45c-0.606.15-1.212,0.31-1.818,0.46v0.45c-0.607.15-1.213,0.31-1.819,0.46v0.45H783.7v0.46h-0.91v0.45h-0.909c-0.152.3-.3,0.61-0.455,0.91h-0.909v0.46h-0.909v0.45h-1.364v0.46l-1.819.45v0.45c-0.909.31-1.819,0.61-2.728,0.91v0.46h-0.91v0.45h-0.909v0.46h-0.909v0.45c-0.909.31-1.819,0.61-2.728,0.91v0.46h-1.364v0.45h-0.91v0.46h-0.909v0.45c-0.909.3-1.819,0.61-2.728,0.91v0.46h-1.364v0.45h-0.909v0.45c-0.606.16-1.213,0.31-1.819,0.46v0.45h-1.364v0.46l-1.819.45v0.46h-1.364v0.45c-0.606.15-1.212,0.31-1.818,0.46v0.45h-1.364v0.46l-1.819.45v0.46h-1.364v0.45h-0.909v0.46l-2.274.45v0.46h-1.364v0.45l-1.819.45v0.46h-1.364v0.45h-0.909v0.46l-2.728.45v0.46h-0.909v0.45c-0.758.15-1.516,0.31-2.274,0.46v0.45c-0.909.15-1.818,0.31-2.728,0.46v0.45h-0.909v0.46l-2.728.45v0.46H725.5v0.45h-1.364v0.46h-1.364v0.45h-1.364v0.45h-1.364v0.46h-0.91v0.45l-9.548,2.73c-8.96,3.58-19.34,5.77-28.644,9.1q-2.729.45-5.456,0.91c-3.918,1.33-8.788,2.36-12.731,3.63h-2.273v0.46h-1.819v0.45h-2.273c-5.4,1.75-12.187,2.41-17.732,4.1q-14.549,2.265-29.1,4.54c-2.577.15-5.154,0.31-7.73,0.46v0.45h-4.092v0.46h-4.547v0.45h-4.546v0.46h-5.456v0.45h-6.366v0.46h-7.729v0.45c-2.863.81-7.655-.34-10.458,0.46H535.9c-5.39,0-12.718.83-17.278-.46-2.755-.78-7.071.25-9.548-0.45h-4.546q-4.32-.24-8.639-0.46v-0.45h-5.456v-0.46h-4.547v-0.45H481.34v-0.46q-9.091-.9-18.187-1.82c-3.538-1.04-8.317-1.22-11.821-2.27H448.6v-0.45h-2.728v-0.46H443.6v-0.45h-2.728c-6.122-1.88-13.569-2.62-19.551-4.55-2.728-.46-5.457-0.91-8.184-1.37v-0.45l-3.638-.45v-0.46h-1.818v-0.45h-1.819v-0.46h-1.819v-0.45h-1.364v-0.46h-1.818v-0.45c-1.213-.15-2.425-0.31-3.638-0.46-8.658-3.12-18.454-5.3-26.825-8.64l-9.548-2.73v-0.45h-0.91v-0.46l-2.728-.45v-0.45c-0.909-.16-1.819-0.31-2.728-0.46v-0.45h-0.909v-0.46l-2.728-.45v-0.46h-0.91v-0.45c-0.909-.15-1.818-0.31-2.728-0.46v-0.45H346.3v-0.46h-1.364v-0.45H344.03v-0.46l-2.728-.45v-0.46h-0.91v-0.45h-1.364v-0.46l-1.818-.45v-0.45h-1.364v-0.46h-0.91v-0.45c-0.757-.16-1.515-0.31-2.273-0.46v-0.45H331.3v-0.46l-1.819-.45v-0.46h-1.364v-0.45c-0.606-.15-1.212-0.31-1.818-0.46v-0.45h-1.365v-0.46l-1.818-.45v-0.46h-1.364v-0.45h-0.91v-0.46l-1.818-.45v-0.45h-1.364v-0.46h-0.91v-0.45H315.84v-0.46c-0.909-.3-1.819-0.61-2.728-0.91v-0.45h-1.364v-0.46c-0.909-.3-1.819-0.6-2.728-0.91v-0.45h-0.909v-0.46H307.2v-0.45h-0.909v-0.46h-0.909v-0.45h-0.91v-0.46h-0.909v-0.45h-0.909v-0.45h-0.91v-0.46h-1.364v-0.45h-0.909v-0.46h-0.909c-0.152-.3-0.3-0.61-0.455-0.91H297.2v-0.45h-0.91v-0.46H295.38v-0.45h-0.909v-0.46l-1.819-.45v-0.46h-0.909v-0.45h-0.91v-0.46h-0.909v-0.45h-0.91v-0.46c-0.909-.3-1.818-0.6-2.728-0.91l-0.454-.9h-0.91v-0.46h-0.909v-0.45H283.1v-0.46h-0.91v-0.45c-0.606-.15-1.212-0.31-1.818-0.46-0.152-.3-0.3-0.6-0.455-0.91h-0.909v-0.45H278.1v-0.46h-0.909v-0.45h-0.909c-0.152-.3-0.3-0.61-0.455-0.91-0.909-.3-1.819-0.61-2.728-0.91-0.152-.3-0.3-0.61-0.455-0.91-0.909-.3-1.818-0.61-2.728-0.91-0.151-.3-0.3-0.61-0.454-0.91l-1.819-.45c-0.152-.31-0.3-0.61-0.455-0.91-0.909-.31-1.819-0.61-2.728-0.91-0.151-.31-0.3-0.61-0.454-0.91-0.607-.15-1.213-0.3-1.819-0.46-0.152-.3-0.3-0.6-0.455-0.91h-0.909v-0.45h-0.909v-0.46l-1.364-.45c-0.152-.3-0.3-0.61-0.455-0.91-0.606-.15-1.213-0.3-1.819-0.454l-0.455-.91-1.818-.454v-0.455l-1.364-.455-0.455-.909h-0.909l-0.455-.91L249,995.2l-0.454-.91h-0.91l-0.454-.909h-0.91l-0.454-.91h-0.91l-0.454-.909h-0.91l-0.454-.909h-0.91q-0.226-.456-0.454-0.91h-0.91v-0.455l-1.364-.454-0.454-.91h-0.91l-0.454-.909h-0.91l-0.454-.91h-0.91V985.65L234,985.2l-0.454-.909h-0.91l-0.909-1.365h-0.909v-0.454l-1.364-.455q-0.228-.455-0.455-0.909h-0.909q-0.456-.682-0.91-1.365H226.27l-0.455-.909h-0.909L224,977.465h-0.91l-0.454-.91h-0.91q-0.227-.454-0.455-0.909l-1.364-.455L219,973.827h-0.909l-0.91-1.364h-0.909l-0.909-1.364h-0.91l-0.909-1.364H212.63l-0.91-1.364h-0.909l-1.364-1.819-1.364-.455-0.455-.909h-0.909l-1.364-1.819h-0.909l-1.364-1.819h-0.91l-1.364-1.819H199.9l-0.455-.909q-0.681-.456-1.364-0.91v-0.455h-0.909l-1.819-2.273h-0.909l-1.819-2.274h-0.909l-1.819-2.273h-0.909q-1.137-1.365-2.273-2.729H185.8l-3.183-3.637h-0.909l-3.183-3.638H177.62l-4.547-5h-0.909l-8.639-9.094h-0.909l-4.092-4.547-5-4.547v-0.91l-9.094-8.639v-0.91l-5-4.547v-0.909h-0.455l-1.364-1.819q-0.909-.682-1.819-1.364v-0.91l-3.182-2.728V893.8q-1.365-1.136-2.728-2.273v-0.91q-1.365-1.136-2.728-2.273v-0.91l-0.91-.454-0.909-1.364h-0.455V884.7l-2.273-1.819v-0.909l-0.909-.455v-0.455l-0.91-.454V879.7l-2.273-1.819v-0.909l-1.819-1.364V874.7l-0.909-.454q-0.228-.683-0.455-1.364l-1.819-1.365v-0.909l-1.364-.909v-0.91l-1.818-1.364v-0.909l-1.364-.91V864.7l-1.364-.91v-0.909q-0.683-.455-1.364-0.91v-0.909l-0.91-.455v-0.909l-0.909-.455q-0.227-.683-0.455-1.364l-1.364-.909v-0.91l-0.909-.455v-0.909l-1.364-.909v-0.91l-0.909-.455v-0.909l-1.364-.909v-0.91l-0.909-.455v-0.909l-1.364-.909v-0.91l-0.909-.455-0.455-1.364H93.961v-0.909l-0.909-.455v-0.909l-0.909-.455v-0.909l-0.909-.455v-0.91l-0.909-.454v-0.91l-0.909-.454v-0.91L88.5,836.5v-0.909l-0.909-.455V834.23l-0.909-.455v-0.909l-0.909-.455-0.455-1.819-0.909-.455v-0.909l-0.909-.455v-0.909l-0.909-.455-0.455-1.819H81.685l-0.455-1.364-0.909-.455v-0.909H79.866v-0.909l-0.909-.455L78.5,819.679l-0.909-.455-0.455-1.819-0.909-.454-0.455-1.819-0.909-.455-0.455-1.819L73.5,812.4v-0.91H73.046v-0.909H72.591v-0.91l-0.909-.454-0.909-2.729-0.909-.454v-0.91H69.408v-0.909H68.954v-0.91l-0.909-.454v-0.91H67.59v-0.909H67.135v-0.91H66.68v-0.909l-0.909-.455v-0.909H65.316v-0.91H64.862v-0.909H64.407v-0.91H63.952L63.5,793.306l-0.909-.455-0.909-2.728H61.224l-0.909-2.729H59.86l-0.455-1.819H58.951L58.5,783.757H58.042v-0.91H57.587v-0.909H57.132v-0.91H56.678v-0.909H56.223l-0.909-2.728H54.859v-0.91H54.4v-0.909H53.95v-0.91H53.495v-0.909H53.04v-0.91H52.586l-0.455-1.818H51.676v-0.91H51.222v-1.364H50.767v-0.909H50.312v-0.91H49.858L48.948,764.2H48.494V762.84H48.039v-0.91H47.584l-0.455-1.819H46.675v-1.364H46.22v-0.909H45.766v-0.91H45.311v-0.909H44.856v-1.364H44.4l-0.455-1.819H43.492v-1.364H43.038l-0.455-1.819H42.128v-1.364H41.673v-0.91H41.219v-1.364H40.764L40.309,744.2H39.855v-1.364H39.4v-0.909H38.945v-1.364H38.491v-0.91H38.036l-0.455-2.273H37.127l-0.455-2.729H36.217v-0.909H35.763v-1.364H35.308v-0.91H34.853q-0.227-1.364-.455-2.728H33.944v-0.909H33.489L33.035,725.1H32.58v-1.364H32.125v-0.909H31.671v-1.364H31.216V720.1H30.761v-1.365H30.307v-1.364H29.852V716H29.4V714.64H28.943v-0.909H28.488v-1.365H28.033V711H27.579v-1.364H27.124v-1.364H26.669v-1.819H26.215v-1.364H25.76v-1.364H25.305v-1.364H24.851V701H24.4v-1.365H23.941v-1.818H23.487v-1.365H23.032v-1.364H22.577v-1.819c-2.195-6.071-3.788-13.326-5.911-19.552l-1.364-7.73c-1.158-3.573-2.031-8.143-3.183-11.823L11.211,647.8H10.756v-2.273c-0.658-2.126-1.19-5.2-1.819-7.276V635.52c-0.678-2.261-1.153-5.466-1.819-7.73v-3.183C6.055,621,5.9,615.994,4.845,612.329v-3.637c-1.391-4.841-.878-11.459-2.273-16.37v-5H2.117v-5.456H1.662V575.5H1.208v-8.185H0.753V555.49C-0.6,550.629.3,540.514,0.3,534.573c0-3.579.208-7.568,0.455-10.458,0.3-3.574-.354-8.046.455-10.913v-8.185H1.662v-6.366H2.117V492.74H2.572v-4.548H3.026L3.481,479.1l5.911-39.56,8.639-38.2h0.455l0.909-5h0.455l0.909-5h0.455v-1.364h0.455V388.61h0.455l0.455-3.183h0.455l1.364-5.911h0.455V377.7c3.261-8.947,6.286-18.779,10-27.283l0.455-2.728h0.455v-0.91h0.455v-1.364h0.455V344.5h0.455l0.455-2.729h0.455v-0.909h0.455V339.5h0.455l0.455-2.274h0.455v-0.909h0.455v-1.364h0.455l0.455-1.819h0.455v-1.364h0.455v-0.91h0.455V329.5h0.455l0.455-1.819h0.455v-1.364H44.4V325.4h0.455l0.455-1.819h0.455v-1.364H46.22v-0.91h0.455l0.455-1.819h0.455v-1.364h0.455V317.22h0.455l0.909-2.728h0.455v-1.365h0.455l0.455-1.818h0.455V310.4h0.455V309.49h0.455l0.909-2.729h0.455V305.4H53.95v-0.909H54.4l0.455-1.819h0.455V301.76h0.455v-0.91h0.455v-0.909h0.455v-0.91h0.455v-0.909h0.455v-0.909h0.455V296.3H58.5v-0.909h0.455v-0.91h0.455v-0.909H59.86v-0.91l0.909-.454,3.183-7.276,0.909-.454v-0.91h0.455v-0.909h0.455v-0.91h0.455v-0.909H66.68v-0.91l0.909-.454v-0.91h0.455V277.66H68.5v-0.91h0.455v-0.909l0.909-.455,0.909-2.728,0.909-.455,0.909-2.728,0.909-.455,0.909-2.728,0.909-.455,0.455-1.819,0.909-.454,0.455-1.819,0.909-.455,0.455-1.819h0.455l0.455-1.364,0.909-.455,0.455-1.818,0.909-.455v-0.91l0.909-.454,0.455-1.819H83.5l0.455-1.364,0.909-.455,0.455-1.819,0.909-.455v-0.909l0.909-.455V245.83H87.6l0.455-1.364,0.909-.455V243.1l0.909-.455v-0.91l0.909-.454v-0.91l0.909-.454v-0.91l0.909-.455v-0.909l0.909-.455v-0.909h0.455l0.455-1.364,0.909-.455v-0.909l1.364-.91v-0.909h0.455L97.6,230.37l0.909-.455v-0.91l1.364-.909v-0.909l0.91-.455v-0.91l1.364-.909V224l0.909-.455v-0.91l0.909-.454q0.228-.683.455-1.364l1.364-.91V219l1.364-.91v-0.909l1.364-.91v-0.909l1.364-.909v-0.91l1.364-.909v-0.91l1.364-.909v-0.91l0.909-.454V209l0.91-.455v-0.909l1.818-1.364v-0.91l1.365-.909v-0.91l1.818-1.364v-0.909l2.274-1.819V198.54l0.909-.455V197.63l0.909-.455v-0.909l2.274-1.819v-0.909l2.728-2.274v-0.909l1.364-.91,0.909-1.364h0.455v-0.909l2.728-2.274v-0.909l3.637-3.183V179.9l4.547-4.092v-0.91h0.454l1.364-1.818,4.092-3.638c3.042-4.2,6.85-7.306,10.458-10.913,3.462-3.462,6.419-7.083,10.457-10l5.911-6.366H175.8l4.092-4.547h0.91l2.728-3.183h0.909l2.728-3.183h0.91l2.273-2.728h0.909l1.819-2.274h0.909l1.819-2.274h0.909l1.819-2.273h0.909q0.228-.454.455-0.91h0.455l0.454-.909h0.91l0.454-.909h0.455l0.455-.91h0.909l1.364-1.819h0.909q0.682-.909,1.364-1.819h0.91l0.454-.909,1.364-.455q0.683-.909,1.364-1.819h0.91l0.909-1.364h0.909q0.456-.681.91-1.364h0.909l0.909-1.364h0.91L219,105.778l1.364-.455,0.455-.909h0.909l0.455-.91h0.909L224,102.14h0.909q0.226-.454.455-0.909h0.909l0.909-1.364h0.91l0.454-.909h0.91l0.909-1.364h0.909V97.138l1.364-.455,0.455-.909H234l0.91-1.364h0.909l0.455-.909,1.364-.455V92.591h0.909L239,91.682h0.909l0.455-.909h0.909l0.455-.909h0.909l0.455-.909H244l0.455-.909h0.909l0.455-.909,1.818-.455q0.228-.455.455-0.91H249q0.228-.455.455-0.909h0.909q0.228-.455.455-0.909h0.909q0.228-.455.455-0.909l1.819-.455V82.133l1.364-.455,0.454-.909h0.91V80.314h0.909l0.455-.91,1.819-.455,0.454-.909,1.819-.455q0.226-.455.455-0.909l1.818-.455,0.455-.91,1.819-.455,0.454-.909,2.728-.909,0.455-.909h0.909V71.674h0.91l0.454-.909h0.91V70.31h0.909V69.856h0.909V69.4h0.91l0.454-.909h0.91V68.037h0.909V67.582h0.909V67.127h0.91l0.454-.91h0.91V65.763h0.909V65.308h0.909V64.854h0.91V64.4h0.909l0.455-.909,2.728-.91V62.125l1.818-.455V61.216h0.91V60.761H292.2V60.307h0.91V59.852h0.909V59.4h0.909V58.942h0.91V58.488h0.909V58.033h0.909V57.578h0.91l0.454-.91h0.91V56.214h1.364V55.759l2.728-.909V54.4h0.909V53.941h0.909V53.486h0.91V53.031h0.909V52.576h0.909V52.122h0.91V51.667h0.909V51.212h0.909V50.758l4.092-1.364V48.939l1.819-.455V48.029h1.364V47.575h0.909V47.12l1.819-.455V46.21h1.364V45.756h0.909V45.3l1.819-.455V44.392h1.364V43.937l1.819-.455V43.027h1.364V42.573h0.909V42.118h1.364V41.663l1.819-.455V40.754h1.364V40.3H336.3V39.844h1.364V39.39h0.91V38.935l2.273-.455V38.026h1.364V37.571h0.909V37.116h1.364V36.661h0.91V36.207l2.728-.455V35.3h0.909V34.843H350.4V34.388h1.364V33.933h0.909V33.478l4.092-.909V32.114h0.91V31.66h1.364V31.2H360.4V30.75h1.364V30.3h1.364V29.841h1.364V29.386h1.364V28.931h0.909V28.477h1.364V28.022h1.364V27.567h1.364V27.112h1.364V26.658h1.819V26.2H375.4V25.748h1.364V25.294h1.364V24.839h1.364V24.384h1.364V23.929h1.819V23.475h1.364V23.02h1.364V22.565l3.182-.455V21.656l3.183-.455V20.746l3.183-.455V19.837l3.183-.455V18.928l5.456-.909c7.092-2.424,15.476-3.581,22.733-5.911l6.82-.909c5.254-1.649,11.891-2.029,17.278-3.638h2.728V7.1h3.182V6.65h2.728V6.2h3.183V5.741h3.183V5.286h3.183V4.831l7.274-.455V3.922h4.092V3.467h4.547V3.012h4.547V2.558h5V2.1h5.911V1.648h6.82V1.194h8.639V0.739C518.754-.2,527.96,2.071,529.99.284ZM58.5,485.464A39.381,39.381,0,0,1,74.864,489.1h1.364v0.455h0.909v0.454H78.5v0.455l1.819,0.455v0.454l1.819,0.455,0.455,0.91,1.819,0.454,0.455,0.91h0.909l0.455,0.909h0.909l0.909,1.364h0.909l1.364,1.819h0.909l3.183,3.638,2.728,2.273v0.91l1.819,1.364v0.909l1.364,0.91v0.909l0.909,0.455,0.455,1.364h0.455q0.227,0.909.454,1.819l0.91,0.455q0.227,0.909.454,1.819h0.455q0.228,0.909.455,1.818h0.454V518.2h0.455v0.909h0.455v1.364h0.454v0.91h0.455q0.228,1.364.455,2.728h0.454v1.819h0.455v1.819h0.455v2.273h0.454v2.728h0.455q0.228,12.5.455,25.01h0.454v9.094h0.455v6.366h0.455v5.457h0.454v5H112.6v4.093h0.455v4.092h0.454v3.638c1.382,4.748,1.342,10.817,2.728,15.46q0.228,2.728.455,5.457c2.116,6.9,2.738,15.148,5,21.826q0.226,2.046.454,4.093c0.868,2.665,1.839,6.034,2.728,8.639q0.228,1.819.455,3.638c3.546,9.836,5.964,20.752,10,30.011l0.909,4.092H136.7v0.91h0.454q0.228,1.364.455,2.728h0.455v0.909h0.454v1.365h0.455V696h0.455v0.909h0.454v1.364h0.455q0.228,1.137.455,2.274h0.454v0.909H141.7v1.364h0.455q0.226,0.91.454,1.819h0.455V706h0.455v0.91h0.454v1.364h0.455q0.228,0.909.455,1.819h0.454v1.364h0.455v0.909h0.455q0.227,0.91.454,1.819h0.455v1.364h0.455v0.91h0.454q0.456,1.364.91,2.728h0.454v1.364h0.455q0.228,0.91.455,1.819h0.454v0.91h0.455v0.909H151.7l0.909,2.728h0.455v1.364h0.455l0.909,2.729h0.455v0.909h0.454v0.91H155.8v0.909h0.455v0.909h0.454v0.91h0.455v0.909l0.909,0.455q0.455,1.363.91,2.728h0.454v0.91h0.455v0.909h0.455v0.91H160.8q0.228,0.909.455,1.818l0.909,0.455v0.91h0.455v0.909h0.455v0.909h0.454v0.91h0.455V749.2l0.909,0.455,0.91,2.728,0.909,0.455,0.909,2.728,0.91,0.455,0.909,2.728,0.909,0.455q0.228,0.909.455,1.819l0.909,0.455q0.228,0.909.455,1.818h0.455q0.227,0.683.454,1.365l0.91,0.454q0.226,0.91.454,1.819h0.455q0.228,0.682.455,1.364l0.909,0.455q0.228,0.909.455,1.819l0.909,0.455v0.909l0.909,0.455V773.3l0.91,0.455v0.909l0.909,0.455q0.228,0.909.455,1.819l0.909,0.455V778.3l0.909,0.455v0.909q0.682,0.455,1.364.91v0.909l0.91,0.455q0.226,0.681.454,1.364H185.8v0.909l0.91,0.455v0.909l0.909,0.455v0.91l1.364,0.909v0.909l0.909,0.455v0.91l1.364,0.909v0.909l0.91,0.455v0.91l0.909,0.454q0.226,0.683.455,1.364,0.681,0.456,1.364.91v0.909l1.364,0.91v0.909l1.364,0.91v0.909l1.364,0.909v0.91l1.818,1.364,0.455,1.364,0.909,0.455v0.909l1.819,1.364v0.91l1.819,1.364v0.909q1.136,0.91,2.273,1.819v0.91q1.137,0.909,2.273,1.819V816.5l2.274,1.819v0.909l2.728,2.274v0.909l3.182,2.729v0.909l4.093,3.638v0.909L229,836.5c2.8,3.872,6.231,6.688,9.548,10l4.547,5H244l5.911,6.366h0.909l3.637,4.092h0.91l2.728,3.183h0.909l2.274,2.729h0.909l2.273,2.728h0.91l0.454,0.909h0.455q0.227,0.456.455,0.91h0.909q0.909,1.137,1.819,2.273h0.909l1.364,1.819h0.909l0.455,0.91h0.455l0.454,0.909h0.91q0.227,0.455.454,0.91l1.364,0.454,1.364,1.819h0.91l0.909,1.364h0.909l0.91,1.364h0.909l0.909,1.365h0.91l0.909,1.364,1.364,0.454q0.228,0.456.455,0.91h0.909l0.455,0.909h0.909l0.909,1.364h0.91q0.226,0.456.455,0.91h0.909l0.909,1.364h0.91l0.454,0.909h0.91v0.455l1.364,0.455,0.454,0.909h0.91l0.909,1.364h0.909l0.455,0.91h0.909L302.2,898.8h0.909q0.228,0.455.455,0.91h0.909l0.455,0.909,1.819,0.455,0.454,0.909h0.91l0.454,0.91,1.364,0.454V903.8l1.819,0.455v0.455l1.364,0.454,0.455,0.91,1.818,0.454v0.455l1.364,0.455q0.228,0.454.455,0.909l1.819,0.455,0.454,0.909,1.819,0.455,0.455,0.91,2.728,0.909,0.454,0.909h0.91v0.455h0.909l0.455,0.91h0.909v0.454h0.91v0.455h0.909v0.455h0.909l0.455,0.909h0.909v0.455h0.91v0.455h0.909V917.9h0.909q0.228,0.454.455,0.91H336.3v0.454h0.91v0.455h0.909v0.455h0.909v0.455h0.91v0.454l1.818,0.455,0.455,0.909h0.909V922.9h0.91v0.455h0.909v0.455h0.909v0.454h0.91v0.455h0.909v0.455h0.909v0.454h0.91v0.455H350.4v0.455H351.3v0.455l1.819,0.454V927.9h0.909v0.455H355.4v0.454h0.91v0.455h0.909v0.455h0.909v0.455l2.729,0.909v0.455h1.364v0.454h0.909v0.455l2.728,0.91v0.454h1.364v0.455l1.819,0.455v0.454H370.4v0.455l1.818,0.455v0.455h1.364V937l1.819,0.455v0.455h1.364v0.454h0.909v0.455l2.274,0.455v0.455h1.364v0.454h0.909v0.455h1.364v0.455H384.5v0.454L386.769,942v0.455l2.728,0.455v0.454h0.909v0.455l4.092,0.909v0.455h0.91v0.455h1.364v0.455h1.364v0.454H399.5V947h1.364v0.455h1.364v0.454h1.364v0.455h1.364v0.455h1.364v0.455h1.364v0.454l2.728,0.455v0.455l2.728,0.454v0.455h1.818V952h1.364v0.455h1.364v0.454l3.183,0.455v0.455l3.183,0.454v0.455l3.182,0.455v0.455l5.457,0.909c4.63,1.58,10.278,2.574,15,4.092l33.191,5.912,10.912,0.909v0.455h4.092v0.455h4.547v0.454h5.456v0.455h6.365v0.455l10.912,0.454,23.643,0.455V971.1H550v0.455h2.273v0.454h1.819v0.455h1.818v0.455l2.728,0.454v0.455h0.91v0.455h1.364v0.455h0.909v0.454h1.364v0.455L565,976.1v0.454l1.818,0.455q0.228,0.455.455,0.91l1.819,0.454v0.455l1.364,0.455q0.226,0.454.455,0.909h0.909l0.909,1.364h0.91L575,983.376h0.909l2.273,2.728,3.638,3.183v0.91l1.818,1.364v0.909l1.364,0.91v0.909l0.91,0.455v0.909l0.909,0.455q0.228,0.909.455,1.819l0.909,0.455q0.228,0.909.455,1.818H589.1c0.152,0.61.3,1.21,0.455,1.82h0.455v1.36h0.454v0.91h0.455v1.37a39.412,39.412,0,0,1,3.637,15.91,37.519,37.519,0,0,0,10.913-1.36H609.1c2.465-.74,6.176-1.08,8.639-1.82,2.727-.3,5.456-0.61,8.184-0.91,5.666-1.75,12.663-2.31,18.187-4.09,2.727-.46,5.456-0.91,8.184-1.37,7.15-2.33,15.359-3.87,22.279-6.36h1.818v-0.46h1.364v-0.45h1.364v-0.46h1.819c8.343-3.04,17.555-5.64,25.461-9.091l4.093-.91v-0.454H711.4V993.38h1.364v-0.455h0.909V992.47l2.728-.454v-0.455l2.274-.455v-0.454h0.909V990.2h1.364v-0.455h0.909v-0.455h1.364v-0.454l1.819-.455v-0.455h1.364v-0.454h0.909v-0.455h1.364v-0.455l1.819-.455V985.65h1.364V985.2l1.819-.455v-0.454h1.364v-0.455h0.909v-0.455h0.909v-0.455h0.91v-0.454h1.364v-0.455h0.909v-0.455h0.909V981.1l2.729-.91v-0.455h1.364v-0.454h0.909v-0.455l1.819-.455V977.92l1.818-.455V977.01l1.819-.455V976.1h0.909v-0.455h0.91v-0.455h0.909v-0.454h0.909v-0.455l2.728-.91v-0.454l1.819-.455v-0.455l1.819-.454V971.1h0.909v-0.455h0.909v-0.455h0.91v-0.454h0.909V969.28l2.728-.909q0.228-.456.455-0.91h0.909v-0.455h0.909v-0.454h0.91V966.1h0.909v-0.455h0.909q0.228-.455.455-0.909h0.909v-0.455h0.91v-0.455h0.909v-0.454h0.91l0.454-.91,2.728-.909q0.228-.455.455-0.91l2.728-.909q0.227-.455.455-0.909l2.728-.91,0.454-.909,1.819-.455q0.227-.455.455-0.909l1.818-.455v-0.455l1.364-.455,0.455-.909H793.7V952.91h0.91l0.454-.909,1.819-.455,0.455-.909h0.909q0.228-.455.455-0.91h0.909l0.455-.909,1.818-.455q0.228-.455.455-0.909h0.909q0.228-.455.455-0.91h0.909q0.228-.454.455-0.909h0.909q0.228-.455.455-0.91h0.909v-0.454l1.364-.455q0.228-.455.455-0.909h0.909l0.455-.91h0.91l0.454-.909h0.91v-0.455l1.364-.455,0.454-.909h0.91l0.909-1.364h0.909V937.45l1.364-.455,0.455-.909h0.909l0.455-.91,1.364-.454,0.909-1.364h0.91q0.227-.456.454-0.91h0.91l0.454-.909,1.364-.455,0.91-1.364h0.909l0.909-1.364h0.91l0.909-1.364h0.909l0.91-1.365h0.909l0.909-1.364h0.91l1.364-1.819,1.364-.454,0.454-.91h0.91l0.454-.909h0.455l0.455-.91h0.909l1.364-1.818h0.909l1.365-1.819H846.9l1.819-2.274h0.909q0.909-1.137,1.819-2.273h0.909q1.137-1.365,2.273-2.729h0.91l2.273-2.728h0.909l2.728-3.183h0.91l4.092-4.547h0.909l5.456-5.911c3.871-2.8,6.686-6.232,10-9.549,3.171-3.173,6.413-5.843,9.093-9.549l4.547-4.093,3.183-4.092q1.135-.91,2.273-1.819v-0.91l3.637-3.183v-0.909l2.728-2.274v-0.909L911,852.418v-0.909l2.274-1.819v-0.909l0.909-.455v-0.455l0.909-.454v-0.91l2.274-1.819v-0.909q0.909-.683,1.819-1.364v-0.91l1.818-1.364v-0.909l1.364-.91v-0.909l1.819-1.364v-0.91l1.364-.909v-0.91l1.364-.909V831.5l1.364-.91v-0.909l1.364-.91v-0.909l1.364-.91q0.228-.681.455-1.364l0.909-.454v-0.91l0.909-.455v-0.909l1.364-.909v-0.91l0.91-.455v-0.909l1.364-.909v-0.91l0.909-.455V816.5h0.455q0.227-.682.454-1.364l0.91-.455v-0.909l1.364-.91v-0.909l0.909-.455,0.455-1.364h0.454v-0.909l0.91-.455v-0.91l0.909-.454v-0.91l0.909-.454v-0.91l0.91-.455q0.226-.909.454-1.818l0.91-.455v-0.91l0.909-.454v-0.91l0.909-.454v-0.91q0.456-.226.91-0.455,0.226-.909.455-1.818h0.454l0.455-1.365,0.909-.454v-0.91h0.455v-0.909l0.909-.455q0.228-.909.455-1.819l0.909-.454q0.228-.911.455-1.819l0.909-.455q0.228-.909.455-1.819l0.909-.455q0.455-1.363.91-2.728l0.909-.455v-0.909h0.455v-0.909l0.909-.455,0.909-2.728h0.455v-0.91l0.909-.455v-0.909H964.2v-0.909h0.455V773.3h0.454v-0.909l0.91-.455v-0.909h0.454v-0.91h0.455v-0.909h0.455V768.3h0.454q0.228-.909.455-1.819l0.909-.454,3.183-7.276h0.455q0.226-.909.454-1.819h0.455q0.228-.909.455-1.818h0.454V754.2h0.455v-0.909h0.455v-0.91h0.454v-0.909h0.455l0.909-2.728h0.455q0.228-.911.455-1.819h0.454v-1.364h0.455v-0.91h0.455v-0.909h0.454q0.456-1.365.91-2.729h0.454v-1.364h0.455V738.74h0.455q0.226-.909.454-1.819H983.3v-1.364h0.455v-0.91h0.454v-0.909h0.455v-0.909h0.455v-1.365h0.455q0.226-.909.454-1.818h0.455v-1.365h0.455v-0.909h0.454v-1.364h0.455q0.226-.909.455-1.819h0.454v-1.364h0.455v-0.91h0.455v-1.364h0.454v-0.909h0.455q0.226-1.137.455-2.274h0.454V716h0.455V715.1h0.455q0.227-1.365.454-2.729H993.3v-0.909h0.455q0.226-1.364.454-2.728h0.455v-0.91h0.455l0.909-4.092h0.455v-0.91h0.454v-1.364h0.455v-1.364h0.455v-1.364H998.3v-1.364h0.455V696c2.1-5.275,3.954-11.407,5.914-16.825v-1.819h0.45v-1.364h0.46V674.17c2.69-7.454,4.32-16.352,6.82-24.1V647.8c1.24-3.841,1.95-8.792,3.18-12.732v-2.273c1.46-4.666,1.76-10.7,3.18-15.461q0.225-2.955.46-5.911c1.54-5.3,1.18-12.323,2.72-17.734v-4.092h0.46v-4.547h0.45V579.59h0.46v-6.366h0.45v-7.275h0.46V555.035c1.35-4.876.45-13.725,0.45-19.552,0-3.247.25-7.494-.45-10V514.566h-0.46v-4.547l-0.45-9.1h-0.46q-0.45-7.274-.91-14.55-2.49-17.051-5-34.1c-1.04-3.4-1.65-8.008-2.73-11.368l-0.45-4.547h-0.45v-1.819h-0.46v-2.273h-0.45v-1.819h-0.46v-1.819h-0.45v-2.274c-2.29-7.015-3.92-15.056-6.37-21.826v-1.819h-0.45v-1.364h-0.46v-1.819h-0.45v-1.364h-0.46V396.8h-0.45v-1.364h-0.46v-1.364h-0.45v-1.819h-0.46v-1.364h-0.45v-1.365h-0.46v-1.364h-0.45v-1.364h-0.455v-1.364h-0.454q-0.455-2.046-.91-4.092h-0.454v-0.91h-0.455v-1.364h-0.455V377.7h-0.454v-1.364h-0.455v-1.364h-0.455V373.6h-0.454V372.7h-0.455q-0.228-1.363-.455-2.728h-0.454v-0.91H993.3v-1.364h-0.455v-0.909h-0.454q-0.228-1.365-.455-2.729h-0.455v-0.909h-0.454v-1.364h-0.455v-0.91h-0.455q-0.226-1.136-.454-2.273h-0.455v-1.364h-0.455v-0.91H988.3v-1.364h-0.455q-0.228-.909-0.455-1.819h-0.454v-1.364H986.48q-0.228-.909-0.455-1.819h-0.454V348.6h-0.455q-0.228-.909-0.455-1.819h-0.455v-1.364h-0.454V344.5H983.3q-0.227-.909-0.455-1.819h-0.454V341.32h-0.455v-0.91h-0.455l-0.909-2.728h-0.455v-1.364H979.66q-0.228-.909-0.455-1.819H978.75V333.59H978.3v-0.91h-0.455v-0.909h-0.455l-0.909-2.729h-0.455v-1.364h-0.454l-0.91-2.728H974.2v-0.909h-0.455v-0.91h-0.455v-0.909H972.84v-0.91h-0.455V320.4H971.93v-0.91l-0.909-.454-0.909-2.729h-0.455V315.4H969.2v-0.909h-0.454v-0.91h-0.455v-0.909h-0.455q-0.226-.909-0.454-1.819l-0.91-.455V309.49H966.02v-0.91h-0.455v-0.909H965.11v-0.91h-0.454v-0.909l-0.91-.455v-0.909h-0.454v-0.909h-0.455v-0.91h-0.455V301.76l-0.909-.455-0.909-2.728-0.91-.455q-0.226-.909-0.454-1.819l-0.91-.455-0.909-2.728-0.909-.455q-0.228-.909-0.455-1.818l-0.909-.455v-0.91h-0.455v-0.909l-0.909-.455v-0.909l-0.91-.455q-0.226-.909-0.454-1.819h-0.455q-0.228-.681-0.455-1.364l-0.909-.455q-0.228-.909-0.455-1.818l-0.909-.455v-0.91l-0.91-.454q-0.227-.682-0.454-1.364h-0.455q-0.227-.911-0.455-1.819l-0.909-.455v-0.909l-0.909-.455v-0.91H944.65q-0.226-.681-0.455-1.364l-0.909-.454v-0.91l-0.909-.455v-0.909h-0.455q-0.227-.683-0.455-1.364l-0.909-.455v-0.909l-1.364-.91v-0.909h-0.455q-0.227-.683-0.454-1.364l-0.91-.455V262.2q-0.681-.456-1.364-0.91v-0.909l-0.909-.455v-0.909l-1.364-.91V257.2l-0.909-.455v-0.909l-0.91-.455q-0.226-.682-0.454-1.364l-1.364-.91V252.2l-0.91-.455v-0.909l-1.364-.91v-0.909l-1.364-.91v-0.909l-1.818-1.364v-0.91l-0.91-.454q-0.227-.683-0.454-1.364l-1.819-1.365v-0.909l-1.364-.909v-0.91l-0.909-.455V238.1l-0.91-.455v-0.909l-1.818-1.365v-0.909l-0.91-.455-0.909-1.364h-0.455v-0.909l-2.273-1.819v-0.91l-2.274-1.818v-0.91q-1.364-1.137-2.728-2.273v-0.91l-3.182-2.728v-0.91l-3.638-3.183v-0.909l-5-4.547v-0.91l-2.728-2.273a67.838,67.838,0,0,1-7.275-8.185l-1.364-.909L881,195.357h-0.909l-2.274-2.729a72.183,72.183,0,0,0-8.638-7.73l-4.092-4.547-1.364-.455-3.183-3.637h-0.909l-2.728-3.183h-0.91q-1.136-1.365-2.273-2.729h-0.909l-1.819-2.273h-0.909L848.26,165.8h-0.909l-1.364-1.819h-0.91q-0.909-1.137-1.819-2.273h-0.909l-0.909-1.364h-0.91q-0.226-.456-0.454-0.91h-0.455q-0.226-.454-0.455-0.909h-0.909l-1.364-1.819h-0.909l-0.91-1.364h-0.909l-0.909-1.364h-0.91l-0.909-1.365h-0.909l-0.91-1.364h-0.909l-0.909-1.364h-0.91l-0.909-1.364-1.364-.455-0.455-.909h-0.909q-0.228-.454-0.455-0.91h-0.909l-0.909-1.364h-0.91l-0.454-.909h-0.91L817.8,142.61h-0.909q-0.228-.455-0.455-0.91l-1.364-.454v-0.455H814.16q-0.228-.454-0.455-0.91H812.8q-0.228-.454-0.455-0.909h-0.909l-0.91-1.364h-0.909q-0.228-.454-0.455-0.91l-1.364-.454v-0.455h-0.909l-0.455-.909-1.819-.455q-0.226-.454-0.454-0.91h-0.91l-0.454-.909h-0.91l-0.454-.909h-0.91q-0.226-.456-0.454-0.91l-1.819-.455v-0.454l-1.364-.455-0.455-.909-1.818-.455V127.6l-1.364-.455-0.455-.909-1.819-.455-0.454-.909-1.819-.455-0.455-.909-1.818-.455q-0.228-.454-0.455-0.909l-1.819-.455q-0.226-.454-0.454-0.91l-2.728-.909q-0.228-.454-0.455-0.909l-2.728-.91-0.455-.909h-0.909v-0.455h-0.91v-0.455H774.6v-0.454h-0.909l-0.455-.91H772.33v-0.455h-0.91v-0.454h-0.909v-0.455H769.6v-0.455h-0.91V112.6h-0.909q-0.227-.456-0.455-0.91l-1.818-.455V110.78H764.6v-0.455h-0.909V109.87h-0.909v-0.454h-0.91v-0.455l-1.818-.455v-0.455l-1.819-.454v-0.455l-1.819-.455v-0.454l-1.818-.455v-0.455l-1.819-.455v-0.454H751.87v-0.455h-0.91V103.5h-0.909V103.05h-0.909V102.6h-0.91V102.14l-1.818-.455v-0.454H745.5v-0.455H744.14v-0.455h-0.909V99.867h-0.909V99.412l-2.729-.91V98.048h-1.364V97.593H737.32V97.138l-1.819-.455V96.229h-1.364V95.774l-1.818-.455V94.865h-1.364V94.41l-1.819-.455V93.5h-1.364V93.046l-1.819-.455V92.136h-1.364V91.682H723.68V91.227l-2.273-.455V90.318h-1.364V89.863h-0.91V89.408h-1.364V88.953H716.86V88.5H715.5V88.044h-0.909V87.589l-2.274-.455V86.68h-1.364V86.225l-2.728-.455V85.316h-0.909V84.861l-2.728-.455V83.952h-0.91V83.5H702.31V83.042h-1.364V82.587h-1.364V82.133h-1.364V81.678h-1.364V81.223H695.49V80.769h-1.364V80.314h-1.364V79.859H691.4V79.4l-2.728-.455V78.5l-2.728-.455V77.586l-2.728-.455V76.676H681.4V76.222h-1.364V75.767h-1.364V75.312l-3.183-.455V74.4l-3.183-.455V73.493l-3.183-.455V72.584l-5-.909V71.22H662.3V70.765h-1.818V70.31h-1.819V69.856h-1.819c-6.837-2.333-15.22-3.313-22.279-5.457h-2.728c-2.072-.631-5.14-1.181-7.274-1.819h-2.728c-4.368-1.306-10.092-1.43-14.55-2.728H604.1V59.4h-3.638V58.942h-3.637V58.488h-4.092V58.033h-4.547V57.578h-4.547V57.124h-5.456V56.669H571.82V56.214h-8.184V55.759H550.45c-3.483-.968-17.438-0.979-20.915,0h-9.093l-12.276.455v0.455H501.8v0.455h-5.457c-5.021,1.441-11.874.85-16.822,2.273h-3.638c-5.451,1.595-12.386,1.585-17.732,3.183l-5.456.455c-2.073.636-5.147,1.161-7.275,1.819h-2.273v0.455h-1.819v0.455h-2.273v0.455h-2.273v0.455h-1.819v0.455l-4.092.455v0.455H428.6c-6.08,1.982-13.208,3.338-19.1,5.457l-8.184,1.819c-5.871,2.138-12.462,4.082-18.187,6.366h-1.364v0.455H380.4v0.455h-1.364v0.455h-1.364V83.5h-1.364v0.455H375.4v0.455l-2.728.455v0.455h-0.909V85.77l-2.728.455V86.68h-1.364v0.455h-0.91v0.455H365.4v0.455H364.49V88.5l-2.273.455v0.455h-1.364v0.455h-0.91v0.455h-1.364v0.455H357.67v0.455h-1.364v0.455H355.4v0.455h-1.364v0.455l-1.818.455V93.5H350.85v0.455l-1.819.455v0.455h-1.364v0.455l-1.819.455v0.455h-1.364v0.455h-0.909v0.455l-1.819.455v0.455h-1.364V98.5h-0.909v0.455h-0.909v0.455l-2.728.909v0.455h-1.364v0.455h-0.91v0.454l-1.818.455V102.6l-1.819.455V103.5l-1.819.455v0.455h-0.909v0.454H326.3v0.455h-0.91v0.455h-0.909v0.455h-0.91v0.454l-1.818.455V107.6l-1.819.454v0.455l-1.819.455v0.455H317.2v0.454H316.3v0.455h-0.91v0.455h-0.909v0.454l-1.819.455q-0.227.455-.454,0.91h-0.91v0.454h-0.909v0.455h-0.909v0.455h-0.91v0.454l-1.818.455-0.455.91h-0.909v0.454h-0.91v0.455h-0.909v0.455h-0.909q-0.228.454-.455,0.909l-2.728.91-0.455.909-2.728.909q-0.226.456-.454,0.91h-0.91v0.455h-0.909l-0.455.909-1.818.455q-0.228.454-.455,0.909l-1.819.455q-0.227.454-.455,0.909h-0.909v0.455H287.2V126.7l-1.364.454-0.455.91-1.819.455v0.454l-1.364.455-0.454.909-1.819.455-0.455.91h-0.909q-0.226.454-.455,0.909h-0.909l-0.455.909h-0.909q-0.228.456-.455,0.91l-1.818.455v0.454l-1.364.455-0.455.909h-0.909l-0.455.91h-0.909l-0.91,1.364h-0.909l-0.455.909-1.364.455v0.455h-0.909l-0.455.909h-0.909q-0.228.454-.455,0.91h-0.909l-0.909,1.364h-0.91l-0.454.909h-0.91l-0.909,1.364h-0.909l-0.455.91h-0.91l-0.454.909-1.364.455-0.91,1.364h-0.909l-0.909,1.364h-0.91l-0.909,1.364h-0.909q-0.454.683-.91,1.365H246.73l-0.909,1.364h-0.91L244,156.706h-0.909l-0.455.909h-0.455l-0.454.91h-0.91l-1.364,1.819h-0.909l-0.909,1.364h-0.91l-1.818,2.273H234l-1.364,1.819h-0.909l-1.819,2.274H229l-1.819,2.273H226.27l-0.909,1.364-1.364.91v0.455h-0.91l-2.728,3.183H219.45l-1.364,1.818-1.819,1.365V179.9h-0.909l-4.547,5a72.27,72.27,0,0,0-8.639,7.73q-1.136,1.365-2.273,2.729H198.99q-0.228.454-.455,0.909l-3.183,2.728v0.91H194.9q-0.682.909-1.364,1.819c-7.095,7.119-14.5,14.035-20.461,22.281l-2.728,2.273v0.91l-0.909.454V228.1l-1.364.909v0.91q-1.137.909-2.273,1.819v0.909l-2.274,1.819v0.909l-1.818,1.365v0.909l-1.819,1.364v0.91l-1.364.909v0.909l-1.819,1.365v0.909l-1.364.909v0.91l-1.818,1.364V248.1l-1.364.91q-0.228.681-.455,1.364l-0.91.455v0.909l-0.909.455v0.909l-1.364.91v0.909l-1.364.91v0.909l-0.909.455v0.909q-0.682.454-1.364,0.91v0.909l-0.91.455v0.909l-1.364.91v0.909h-0.454l-0.455,1.364-0.909.455v0.909l-1.364.91v0.909l-0.91.455q-0.227.681-.454,1.364h-0.455v0.909l-0.909.455v0.91l-0.91.454v0.91l-0.909.454v0.91l-0.909.455v0.909l-0.91.455q-0.227.909-.454,1.819l-0.91.454v0.91l-0.909.454v0.91l-0.909.455q-0.228.909-.455,1.818l-0.909.455v0.91l-0.91.454q-0.226.909-.454,1.819H126.7q-0.228.683-.455,1.364l-0.909.455q-0.228.909-.455,1.819l-0.909.455q-0.228.909-.455,1.818l-0.909.455-0.909,2.728-0.91.455v0.91h-0.454v0.909l-0.91.455v0.909h-0.454v0.91h-0.455v0.909h-0.455v0.909l-0.909.455q-0.454,1.363-.91,2.728l-0.909.455-0.909,2.728h-0.455v0.91h-0.455V310.4l-0.909.455v0.909h-0.455v0.91h-0.454v0.909h-0.455v0.91h-0.455V315.4h-0.454v0.909h-0.455v0.91h-0.455v0.909h-0.454v0.91l-0.91.454-0.909,2.729h-0.455v0.909h-0.454v0.91h-0.455l-0.909,2.728h-0.455v1.364h-0.455l-0.909,2.728H102.6v0.91h-0.454v0.909H101.69v0.91h-0.455V334.5h-0.454v0.909h-0.455v0.91H99.871v1.364H99.417v0.909H98.962l-0.909,2.729H97.6v1.364H97.143v0.909H96.689l-0.455,1.819H95.779v1.364H95.325L94.87,348.6H94.415v1.364H93.961l-0.455,1.819H93.051v1.364H92.6l-0.455,1.819H91.687v1.364H91.233v0.91H90.778V358.6H90.323v0.909H89.869l-0.455,2.274H88.959v1.364H88.5v0.909H88.05L87.6,366.784H87.141v0.909H86.686v1.364H86.231v0.91H85.777l-0.909,4.092H84.413v0.91H83.958l-0.909,4.092H82.594v0.909H82.139v1.365H81.685V382.7H81.23v1.364H80.775v1.364H80.321v1.364H79.866v1.364H79.411v1.364H78.957v1.365H78.5v1.364H78.047v1.819H77.593v1.364H77.138V396.8H76.683v1.364H76.228v1.364H75.774v1.819H75.319v1.364H74.864v1.819c-2.452,6.765-4.1,14.8-6.365,21.826l-0.909,5.912H67.135L65.771,440.9c-1.6,4.958-2.11,11.316-3.637,16.37l-0.455,5.911c-0.726,2.463-1.1,6.173-1.819,8.64v3.637A43.254,43.254,0,0,0,58.5,485.464ZM568.182,858.33c-0.6-13.441-9.2-21.686-19.1-25.919h-1.364v-0.455H545.9V831.5h-3.183v-0.455h-2.728v-0.455H524.079v-0.455h-6.82s-0.02-.379-0.909-0.454H511.8v-0.455h-4.092v-0.455h-4.092l-24.1-4.092v-0.455h-2.274v-0.455H475.43v-0.454h-2.274v-0.455l-5.456-.909V821.5h-1.818v-0.455l-5-.909v-0.455h-1.364v-0.455h-1.364V818.77h-1.819v-0.455h-1.364V817.86h-1.818v-0.455h-1.364v-0.454h-1.364V816.5h-1.364v-0.455H447.7v-0.454h-1.364v-0.455l-2.728-.455v-0.455h-0.91v-0.454l-4.092-.91V812.4h-0.909v-0.455l-2.728-.455v-0.455h-0.909v-0.454h-1.364V810.13h-0.91v-0.455h-1.364v-0.454h-0.909v-0.455h-1.364v-0.455l-1.819-.455V807.4h-1.364v-0.455h-0.909v-0.455l-1.819-.454v-0.455h-1.364v-0.455H419.96v-0.455l-2.728-.909v-0.455h-1.364v-0.454h-0.91V802.4l-1.818-.455V801.49h-0.91v-0.454h-0.909v-0.455h-0.909v-0.455H409.5v-0.454h-0.909v-0.455h-0.909v-0.455h-0.91v-0.455h-0.909v-0.454h-0.909V797.4h-0.91l-0.454-.909-1.819-.455v-0.455h-0.909v-0.455h-0.91V794.67h-0.909v-0.455h-0.909q-0.228-.454-0.455-0.909l-2.728-.91-0.455-.909-1.819-.455-0.454-.909-1.819-.455-0.455-.91-1.818-.454-0.455-.91-1.819-.454q-0.226-.456-0.454-0.91H384.5l-0.454-.909-1.364-.455v-0.455l-1.819-.454V783.3l-1.364-.455-0.455-.909H378.13l-0.455-.91h-0.909l-0.909-1.364h-0.91l-0.454-.909h-0.91V778.3l-1.364-.455-0.454-.909h-0.91q-0.226-.454-0.454-0.91l-1.364-.454-0.91-1.364h-0.909q-0.228-.456-0.455-0.91h-0.909l-0.455-.909-1.364-.455-1.364-1.819h-0.909l-0.909-1.364h-0.91l-1.364-1.819H357.67q-0.683-.909-1.364-1.819H355.4l-1.818-2.273h-0.91l-0.909-1.364H351.3q-0.226-.456-0.454-0.91h-0.91l-2.728-3.183c-4.965-3.594-8.915-8-13.185-12.277L326.3,737.83v-0.909l-4.093-3.638v-0.909l-3.182-2.728v-0.91l-2.728-2.273v-0.91l-2.274-1.819v-0.909l-1.818-1.364v-0.91l-0.91-.454v-0.455l-0.909-.455v-0.909l-1.364-.91v-0.909l-1.364-.91V714.64l-1.364-.909v-0.91l-1.364-.909q-0.228-.683-0.455-1.364l-0.909-.455v-0.91l-0.909-.454v-0.91l-1.364-.909V706h-0.455q-0.228-.681-0.455-1.364l-0.909-.454v-0.91l-1.364-.909v-0.91L297.2,701q-0.228-.683-0.455-1.365h-0.455q-0.226-.909-0.454-1.818l-0.91-.455v-0.91L294.016,696v-0.91l-0.909-.454q-0.228-.911-0.455-1.819H292.2q-0.226-.682-0.454-1.364l-0.91-.455q-0.227-.909-0.455-1.819l-0.909-.455q-0.227-.909-0.455-1.819l-0.909-.454-0.909-2.729-0.91-.454v-0.91h-0.454v-0.909h-0.455v-0.91h-0.455v-0.909l-0.909-.455L280.83,671.9l-0.909-.455q-0.227-.909-0.455-1.819h-0.454q-0.228-.909-0.455-1.819H278.1V666.44h-0.454q-0.228-.909-0.455-1.819h-0.455v-0.909h-0.454V662.8h-0.455l-0.909-2.729h-0.455V658.71H274.01V657.8h-0.454v-0.91H273.1v-0.909h-0.455v-1.364h-0.454v-0.91h-0.455v-1.364h-0.455q-0.227-.909-0.454-1.819h-0.455v-1.364h-0.455v-0.909h-0.454v-1.364h-0.455v-0.91h-0.455v-1.364H268.1v-0.909h-0.455l-0.909-4.093h-0.455V638.7h-0.455l-0.909-4.093h-0.455v-1.364h-0.454v-1.364h-0.455v-1.364H263.1v-1.364h-0.454V627.79h-0.455v-1.364h-0.455v-1.365H261.28v-1.818h-0.455v-1.365H260.37V620.06h-0.454V618.7h-0.455q-0.228-1.592-.455-3.183h-0.454v-1.818H258.1q-0.228-1.819-.455-3.638h-0.454q-0.228-1.82-.455-3.638h-0.455v-2.273c-1.321-4.1-1.912-9.381-3.183-13.642q-0.227-2.729-.454-5.456h-0.455v-3.183h-0.455v-3.183h-0.454v-3.638h-0.455V570.95h-0.455V566.4h-0.454v-5.911h-0.455c-0.706-2.49.171-6.429-.455-8.64v-15h-0.454v-3.183c-3.582-11.661-12.335-21.672-26.826-22.281q0.682-7.047,1.364-14.1h0.455v-3.638H224v-2.728h0.454v-3.183h0.455v-2.729h0.455v-2.273h0.454q0.228-2.5.455-5,2.727-11.594,5.456-23.19h0.455q0.681-3.183,1.364-6.366H234q0.454-2.274.91-4.548h0.454v-1.364h0.455V440.9h0.455v-1.364h0.454v-1.364h0.455V436.81h0.455l0.909-4.093H239v-0.909h0.454q0.228-1.363.455-2.728h0.455v-0.91h0.454q0.228-1.363.455-2.728h0.455v-0.91h0.454v-1.364h0.455v-0.909h0.455q0.227-1.137.454-2.274H244v-1.364h0.455v-0.909h0.454v-1.364h0.455q0.228-.911.455-1.819h0.454v-1.364h0.455q0.228-.911.455-1.819h0.454v-1.364h0.455v-0.91h0.455l0.909-2.728h0.455V404.98h0.454v-0.91h0.455q0.228-.909.455-1.819h0.454v-0.909h0.455v-0.909h0.455v-0.91H253.1v-0.909h0.455V397.7h0.455q0.227-.909.454-1.819h0.455q0.228-.909.455-1.818h0.454v-0.91h0.455v-0.909h0.455v-0.91h0.455v-0.909h0.454q0.228-.909.455-1.819l0.909-.455v-0.909h0.455v-0.91h0.455v-0.909h0.454v-0.909h0.455v-0.91l0.909-.455q0.454-1.363.91-2.728l0.909-.455q0.226-.909.455-1.818l0.909-.455q0.227-.909.455-1.819l0.909-.455q0.227-.909.455-1.819l0.909-.454q0.226-.909.455-1.819l0.909-.455v-0.909l0.909-.455q0.228-.909.455-1.819l0.909-.455v-0.909l0.91-.455v-0.909l0.909-.455V363.6h0.455q0.227-.683.454-1.364l0.91-.455v-0.91h0.454q0.228-.681.455-1.364l0.909-.454v-0.91l1.364-.909v-0.91h0.455q0.228-.681.455-1.364l0.909-.455V353.6l1.364-.909v-0.91l1.364-.909v-0.91l1.364-.909v-0.91l1.364-.909v-0.909l1.364-.91V344.5l1.364-.91v-0.909l1.819-1.364v-0.91l1.819-1.364v-0.909l2.273-1.819v-0.91l2.273-1.818v-0.91l2.728-2.273V329.5l3.638-3.183V325.4l5.91-5.457v-0.909l3.638-3.183q3.636-3.865,7.274-7.73h0.91l5-5.457h0.91l3.182-3.638h0.91l2.273-2.728h0.909l1.819-2.273H336.3l1.819-2.274h0.909l1.364-1.819h0.91l1.364-1.819h0.909l0.455-.909,1.364-.455,1.364-1.819h0.909l0.909-1.364h0.91l0.909-1.364H351.3q0.228-.454.455-0.909h0.909l0.91-1.365h0.909l0.455-.909h0.909l0.909-1.364h0.91l0.454-.91,1.364-.454v-0.455h0.91q0.226-.454.455-0.909h0.909q0.227-.456.455-0.91h0.909q0.226-.454.455-0.909h0.909l0.455-.91h0.909q0.227-.454.455-0.909h0.909l0.455-.91h0.909q0.226-.454.455-0.909l1.818-.455v-0.454l1.364-.455,0.455-.91,1.819-.454,0.454-.91,1.819-.454,0.455-.91,2.728-.909,0.454-.91,2.728-.909q0.228-.454.455-0.91H384.5v-0.454h0.91v-0.455h0.909v-0.455h0.909q0.228-.454.455-0.909l1.819-.455v-0.455h0.909V257.2h0.909v-0.455h0.91v-0.455h0.909v-0.454l1.819-.455v-0.455l1.819-.455v-0.454l1.818-.455v-0.455l1.819-.454V252.2h0.909v-0.455h0.91v-0.455h0.909v-0.454h0.909v-0.455l1.819-.455v-0.454h0.909v-0.455h1.364v-0.455h0.91V248.1l1.818-.454v-0.455h1.364v-0.455l1.819-.454V245.83h1.364v-0.455l1.819-.455v-0.454H418.6v-0.455h0.909v-0.455h1.364V243.1h0.909v-0.455h1.364v-0.455h0.91v-0.455h1.364v-0.454h0.909v-0.455l2.728-.455v-0.454h0.91v-0.455h1.364v-0.455h1.364v-0.455h1.364V238.1h1.364v-0.455h1.364V237.19h1.364v-0.454h1.364v-0.455h1.364v-0.455h1.364v-0.455H443.6v-0.454l2.728-.455v-0.455h1.818v-0.454h1.364V233.1h1.364v-0.455l5-.909v-0.455H457.7v-0.455l3.638-.454c4.869-1.657,10.851-2.513,15.913-4.093l5-.455v-0.454h2.273v-0.455h2.728v-0.455h2.728V224h3.183v-0.455h3.182v-0.455h3.638v-0.455h3.637v-0.454h4.092V221.73h5v-0.455l15.458-.454c3.932-1.091,10.275-.454,15-0.455,2.844,0,6.513-.146,8.638.455,2.624,0.741,6.749-.209,9.094.454h6.365v0.455h5c4.371,1.261,10.256,1.02,14.549,2.274h3.183c4.637,1.381,10.476,1.763,15,3.183h2.273c4.117,1.336,9.149,2.262,13.186,3.637l3.637,0.455v0.455l5,0.909V233.1l4.547,0.909v0.455h1.364v0.455h1.364v0.454h1.364v0.455h1.364v0.455h1.364v0.455h1.364v0.454H643.2v0.455h1.364V238.1h1.364v0.454h1.364v0.455h1.364v0.455h1.364c8.564,3.744,17.894,7.063,25.917,11.368l1.818,0.454v0.455h0.91V252.2h0.909v0.455h0.909v0.454h0.91v0.455h0.909v0.455h0.909v0.454c0.564,0.311,1.993.41,2.274,0.91v1.364h-0.455q-0.228,1.363-.455,2.728h-0.454v1.364c-1.056,2.841-1.843,6.561-2.728,9.549v2.729h-0.455v2.728h-0.455v3.638h-0.454v5.911h-0.455c-0.59,2.124.027,10.3,0.455,11.823q0.226,4.773.454,9.548h0.455v2.729H681.4v2.728h0.454v2.274q2.274,7.729,4.547,15.46h0.455v0.909h0.454v1.364h0.455v0.91h0.455V334.5h0.454l0.91,2.728h0.454v0.91h0.455v0.909h0.455v0.91H691.4v0.909h0.455v0.909h0.455v0.91h0.454v0.909h0.455v0.91h0.455v0.909l0.909,0.455q0.228,0.909.455,1.819l0.909,0.454q0.228,0.911.455,1.819h0.454q0.228,0.682.455,1.364l0.909,0.455v0.91l0.91,0.454v0.91l1.364,0.909v0.91l0.909,0.454v0.91l1.819,1.364v0.909l1.818,1.364v0.91l2.274,1.819,0.909,1.364h0.455v0.909l3.637,3.183,1.819,2.274h0.909l3.183,3.638h0.909l1.364,1.818h0.91q0.226,0.456.454,0.91h0.455l0.455,0.909h0.909q0.228,0.454.455,0.91h0.909l0.909,1.364h0.91l0.454,0.909,1.364,0.455V382.7h0.91l0.454,0.909,1.819,0.455,0.455,0.909,1.818,0.455q0.228,0.454.455,0.909H735.5v0.455h0.91v0.455h0.909V387.7h0.909q0.228,0.454.455,0.909l2.273,0.455v0.454h0.91v0.455h0.909v0.455l2.728,0.909v0.455h1.364v0.455h0.91V392.7l2.273,0.455v0.455h1.364v0.455h1.364v0.454h1.364v0.455h1.364v0.455h1.364v0.454h1.364v0.455h1.819V396.8h1.818v0.455h1.819V397.7h1.819v0.455h2.273v0.455h2.728v0.454h2.728v0.455l9.548,0.455c1.517,0.423,9.706,1.048,11.822.455v-0.455h5.91v-0.455h3.638v-0.455h2.728v-0.454h2.728l15-4.093,7.729,15.461v1.364H832.8q0.228,0.909.455,1.819h0.454v1.364h0.455q0.228,0.909.455,1.819h0.454v1.364h0.455v0.909h0.455v1.364h0.454v0.91h0.455q0.228,1.137.455,2.273H837.8v1.364h0.455v0.91h0.455q0.227,1.363.454,2.728h0.455v0.91h0.455q0.226,1.363.454,2.728h0.455v0.909h0.455v1.364h0.454v1.365h0.455v1.364H842.8v1.364h0.454v1.364c3.137,7.864,5.039,17.129,7.73,25.464v2.274c1.239,3.84,1.981,8.78,3.183,12.732v2.728h0.454v2.273h0.455v2.729h0.455v3.183h0.454v2.728h0.455q0.227,3.41.455,6.821h0.454v4.092h0.455v4.547h0.455q0.226,5.911.454,11.823c0.82,2.937-.379,7.9.455,10.913h0.455v4.547c0,3.78.4,8.8-.455,11.823v10.913h-0.455v6.366c-1.49,5.182-.8,12.225-2.273,17.279v3.183c-1.461,4.939-1.726,11.138-3.183,15.915V604.6h-0.454q-0.228,2.046-.455,4.093H851.9q-0.227,2.046-.454,4.092h-0.455V614.6h-0.455v1.819h-0.454v1.819h-0.455l-0.909,5.456H848.26q-0.683,3.183-1.364,6.366h-0.455q-0.227,1.592-.454,3.183h-0.455v1.364h-0.455v1.365h-0.455v1.364h-0.454V638.7h-0.455v1.364h-0.455v1.364H842.8v1.364h-0.455q-0.227,1.365-.455,2.729H841.44q-0.455,2.046-.91,4.092h-0.454v0.909h-0.455v1.365h-0.455v1.364h-0.454v0.909h-0.455v1.364H837.8v0.91h-0.454q-0.228,1.135-.455,2.273h-0.455v1.364h-0.454v0.91h-0.455v1.364h-0.455v0.909H834.62v1.364h-0.455q-0.226.91-.455,1.819h-0.454V667.8H832.8v0.91h-0.455q-0.226.909-.454,1.819h-0.455V671.9h-0.455v0.909h-0.454v0.91h-0.455v0.909h-0.455l-0.909,2.728h-0.455v1.365H827.8l-0.91,2.728h-0.454v0.909h-0.455v0.91h-0.455v0.909h-0.454v0.91h-0.455v0.909h-0.455V686.9h-0.454v0.91l-0.91.455v0.909h-0.454v0.909h-0.455V691h-0.455V691.9H820.98q-0.228.91-.455,1.819l-0.909.455v0.909h-0.455V696h-0.455v0.909h-0.454v0.91l-0.91.454L816.433,701l-0.909.454q-0.228.91-.455,1.819l-0.909.455q-0.228.909-.455,1.819L812.8,706q-0.228.91-.455,1.819l-0.909.455v0.909l-0.91.455v0.91l-0.909.454q-0.228.911-.455,1.819l-0.909.455v0.909h-0.455q-0.226.683-.455,1.364L806.43,716v0.91l-0.909.454v0.91l-0.91.454v0.91h-0.454l-0.455,1.364-0.909.455v0.909l-1.364.91v0.909l-0.91.455v0.909l-1.364.91v0.909l-0.909.455v0.909l-1.364.91v0.909l-1.364.909v0.91l-1.364.909v0.91l-1.819,1.364v0.909l-1.364.91v0.909l-1.818,1.364v0.91q-0.91.681-1.819,1.364v0.909l-2.273,1.819v0.91q-1.365,1.135-2.728,2.273v0.91l-3.183,2.728v0.909l-4.092,3.638c-3.163,4.369-7.159,7.615-10.912,11.368-4.132,4.131-7.921,8.344-12.731,11.822l-2.728,3.183h-0.909l-0.455.91h-0.455l-0.909,1.364H745.05l-1.819,2.274h-0.909q-0.91,1.135-1.819,2.273h-0.91l-1.364,1.819H737.32q-0.227.454-.455,0.909l-1.364.455-1.364,1.819h-0.909l-0.909,1.364h-0.91l-0.909,1.364h-0.909q-0.228.455-.455,0.91h-0.909l-0.455.909-1.364.455-0.909,1.364h-0.91l-0.454.909h-0.91v0.455l-1.364.455-0.454.909H720.5l-0.909,1.364h-0.909q-0.228.456-.455,0.91h-0.909q-0.228.454-.455,0.909h-0.909q-0.228.455-.455,0.91h-0.909q-0.228.455-.455,0.909l-1.819.455-0.454.909h-0.91l-0.454.91h-0.91l-0.454.909-1.819.455-0.455.909-1.819.455-0.454.909-1.819.455q-0.226.454-.455,0.91l-1.818.454-0.455.91-2.728.909q-0.226.454-.455,0.91h-0.909v0.454h-0.909v0.455h-0.91v0.455h-0.909l-0.455.909-1.818.455v0.455l-1.819.454v0.455h-0.909v0.455h-0.91v0.454H686.4v0.455h-0.909v0.455l-1.819.455-0.455.909-5,1.819v0.455H677.3v0.454h-0.91v0.455h-0.909v0.455l-2.728.909v0.455h-1.364V831.5l-1.819.454v0.455H668.21v0.455H667.3v0.454l-1.819.455v0.455h-1.364v0.455h-0.909v0.454l-2.274.455v0.455h-1.364V836.5l-1.818.455v0.455l-2.728.455v0.454h-0.91v0.455h-1.364v0.455h-0.909v0.454l-4.092.91v0.455h-0.909v0.454l-2.728.455v0.455h-1.364v0.454h-1.364v0.455h-1.364v0.455h-1.364v0.455h-1.365v0.454h-1.364v0.455H634.11C614.964,852.083,591.68,855.945,568.182,858.33Zm-40.011-492c-1.3,1.057-3.988-.1-5.91.455L506.8,369.057v0.455l-4.547.455v0.454h-1.818v0.455h-1.819v0.455H496.8v0.455H494.98v0.454h-1.818V372.7H491.8v0.455h-1.819V373.6l-5.911,1.365v0.454h-0.909v0.455H481.8v0.455l-2.728.454v0.455h-0.909V377.7l-2.728.455v0.454h-0.91v0.455h-1.364v0.455h-0.909v0.454l-2.273.455v0.455l-2.728.909v0.455h-0.91V382.7h-1.364v0.454l-2.728.91v0.455h-0.909v0.454l-2.728.91-0.455.909h-0.909v0.455h-0.91V387.7h-0.909v0.454h-0.909v0.455h-0.91l-0.454.909-1.819.455-0.455.91-1.818.454q-0.228.454-.455,0.91l-1.819.454q-0.227.456-.454,0.91h-0.91l-0.454.909h-0.91v0.455l-1.364.455-0.454.909h-0.91q-0.227.454-.454,0.91h-0.91l-0.909,1.364h-0.909q-0.228.454-.455,0.909h-0.909l-0.91,1.364h-0.909l-0.909,1.364h-0.91q-0.681.911-1.364,1.819h-0.909l-1.364,1.819H428.6q-1.136,1.365-2.273,2.728h-0.909l-3.638,4.093h-0.909l-4.092,4.547-4.547,4.092v0.91h-0.454l-0.91,1.364-2.728,2.274v0.909l-2.273,1.819v0.909l-2.273,1.819v0.91l-1.364.909v0.909l-1.819,1.365v0.909l-0.909.455v0.909q-0.683.454-1.364,0.91v0.909l-0.91.455V440.9l-1.364.91v0.909l-0.909.455q-0.228.681-.455,1.364h-0.455v0.909l-0.909.455q-0.226.909-.455,1.819h-0.454l-0.455,1.364-0.909.455v0.909h-0.455v0.91l-0.909.454q-0.454,1.365-.91,2.729l-0.909.454v0.91h-0.455v0.909h-0.454v0.91h-0.455v0.909h-0.455v0.909h-0.454v0.91H384.95q-0.227.909-.455,1.819h-0.454v0.909h-0.455v0.91h-0.455V465h-0.454v0.909h-0.455v0.91h-0.455q-0.227.909-.454,1.819h-0.455v0.909H380.4v1.364h-0.454q-0.228.91-.455,1.819h-0.455V474.1h-0.454v0.91H378.13v1.364h-0.455v0.909h-0.454q-2.955,9.094-5.911,18.189v1.819h-0.455v1.819H370.4v2.273h-0.455V503.2h-0.455v2.274h-0.454v2.273h-0.455v2.728c-0.772,2.617-1.041,6.38-1.819,9.095v4.547h-0.454v5.911c-0.94,3.4-.962,16.618,0,20.008v4.547l0.909,9.549h0.455v3.183h0.454v2.728h0.455v2.274h0.455v2.728h0.454q0.228,2.046.455,4.092H370.4v1.819h0.454v1.819h0.455v1.819h0.455v1.819h0.454v1.364h0.455v1.819h0.455v1.364h0.454v1.364h0.455v1.364h0.455v1.819h0.454v0.909H375.4v1.365h0.455v1.364h0.454v1.364h0.455v1.364h0.455v0.909h0.454v1.365h0.455q0.228,1.136.455,2.273h0.454v0.91h0.455v1.364h0.455q0.227,0.909.454,1.819h0.455v0.909h0.455v1.364h0.454v0.91h0.455c0.9,1.664-.185,1.945,2.273,2.273v-0.455l4.547-.909v-0.455h1.819c6.695-2.166,19.257-2.746,26.371-.454h2.273l10.912,3.637v0.455l2.728,0.909v0.455h0.91v0.455l1.818,0.455,0.455,0.909,1.819,0.455,0.454,0.909h0.91q0.226,0.454.454,0.91h0.91l0.454,0.909,1.364,0.455,0.91,1.364h0.909l2.273,2.728h0.91q0.227,0.454.454,0.91,1.365,1.135,2.728,2.273v0.91q1.365,1.135,2.728,2.273v0.91l1.364,0.909v0.909l1.364,0.91v0.909l0.91,0.455q0.227,0.683.454,1.364h0.455q0.228,0.909.455,1.819l0.909,0.455,0.909,2.728h0.455l0.909,2.728h0.455v1.364H462.7v0.91h0.454V652.8h0.455v0.909h0.455v1.365h0.455v1.818h0.454v1.365h0.455v1.818h0.455v2.274c2.215,7.206,1.832,19.608-.455,26.373v1.819h-0.455V691.9h-0.454q-0.228,1.591-.455,3.183h-0.455V696h-0.455c-0.245.594,0.209,0.187,0.455,0.454,1.145,1.239,1.692.689,3.183,1.365v0.454H467.7v0.455l2.728,0.909v0.455h1.364v0.455h0.91V701h1.364v0.454h0.909v0.455h1.364v0.455h0.909v0.454h1.364v0.455h0.91v0.455l2.728,0.455v0.454h1.364v0.455h1.364v0.455h1.364V706h1.364v0.455h1.364v0.455l8.638,1.819v0.454h1.819v0.455h1.819v0.455l4.092,0.455V711l5,0.455v0.455h2.728v0.454h3.183v0.455h4.092v0.455l11.821,0.455v0.454h15v-0.454h4.546l7.275-.455v-0.455l7.275-.455v-0.454h2.728v-0.455h2.273V711h2.728v-0.454l4.092-.455v-0.455H580v-0.455h1.819v-0.454h1.818v-0.455h1.819v-0.455h1.819v-0.454h1.364V706.91h1.818v-0.455h1.364V706h1.364v-0.454h1.364v-0.455h1.364v-0.455h1.364v-0.454l2.728-.455v-0.455h0.91v-0.455h1.364v-0.454h0.909v-0.455h1.364v-0.455h0.91V701h1.364v-0.455h0.909v-0.455H609.1v-0.455l2.728-.909V698.27h0.909v-0.454H614.1v-0.455l2.728-.91V696h0.91v-0.455h0.909v-0.455l2.728-.909,0.455-.91h0.909v-0.454h0.909v-0.455h0.91V691.9h0.909l0.455-.909,2.728-.91,0.454-.909,1.819-.455,0.455-.909h0.909l0.455-.91h0.909l0.455-.909h0.909l0.455-.909,1.818-.455,0.91-1.364h0.909q0.228-.454.455-0.91h0.909l0.91-1.364h0.909q0.227-.455.455-0.909h0.909l0.909-1.364h0.91q0.681-.91,1.364-1.819h0.909l1.364-1.819h0.909l1.819-2.274h0.909l2.274-2.728h0.909l4.092-4.547c3.316-3.318,6.748-6.131,9.548-10l3.183-2.728V651.89l2.273-1.819v-0.91l1.819-1.364v-0.909l1.364-.91v-0.909l1.364-.91V643.25l1.364-.909v-0.91l0.909-.455v-0.909l1.364-.909v-0.91l0.91-.455q0.226-.681.454-1.364h0.455V635.52l0.909-.455q0.228-.909.455-1.819h0.455q0.227-.681.454-1.364l0.91-.455v-0.909h0.454v-0.909l0.91-.455q0.226-.909.454-1.819l0.91-.455v-0.909H691.4v-0.91h0.455v-0.909h0.455v-0.909l0.909-.455v-0.91h0.455v-0.909h0.454V620.06h0.455v-0.91h0.455v-0.909h0.454v-0.91h0.455v-0.909H696.4v-0.91h0.454l0.91-2.728h0.454q0.228-1.137.455-2.273h0.455q0.226-.91.454-1.819h0.455v-1.364h0.455v-0.91h0.454q0.228-1.137.455-2.273h0.455V602.78h0.454v-0.909h0.455l0.909-4.092h0.455v-1.365h0.455v-0.909h0.454v-1.819h0.455v-1.364h0.455v-1.364H706.4v-1.364h0.455q0.228-1.591.455-3.183h0.455v-1.819h0.454v-1.819h0.455v-1.819h0.455v-1.819h0.454q0.455-3.409.91-6.82h0.454q0.454-4.092.91-8.185h0.454q0.228-3.865.455-7.73h0.455q0.227-7.957.454-15.915-0.227-8.184-.454-16.37h-0.455v-4.547c-0.772-2.646-1.039-6.5-1.819-9.095v-2.728H710.5v-2.273H710.04V503.2h-0.455v-1.819h-0.454v-2.273h-0.455v-1.819h-0.455v-1.819q-2.955-9.093-5.911-18.189h-0.454V476.37H701.4v-1.364h-0.455V474.1h-0.454v-1.364h-0.455q-0.227-.909-0.455-1.819h-0.454v-1.364h-0.455l-0.909-2.728h-0.455v-0.91h-0.455V465H696.4v-0.909h-0.455v-0.91H695.49q-0.226-1.137-.454-2.273l-0.91-.455v-0.91h-0.454v-0.909h-0.455v-0.909h-0.455v-0.91h-0.454v-0.909h-0.455V455l-0.909-.454q-0.455-1.365-.91-2.729l-0.909-.454q-0.228-.91-0.455-1.819h-0.454q-0.228-.682-0.455-1.364l-0.909-.455q-0.228-.909-0.455-1.819h-0.455q-0.226-.683-0.454-1.364l-0.91-.455v-0.909l-0.909-.455v-0.909l-1.364-.91v-0.909l-0.909-.455v-0.909l-1.364-.91V436.81l-0.91-.455v-0.909l-1.818-1.365v-0.909l-1.364-.909v-0.91l-2.274-1.819v-0.909l-2.273-1.819V425.9l-4.092-3.638v-0.91l-4.092-3.637-4.547-5h-0.909q-0.228-.454-0.455-0.91h-0.455l-2.728-3.183h-0.909q-1.137-1.363-2.273-2.728h-0.91l-1.364-1.819H647.75l-1.364-1.819h-0.909q-0.456-.681-0.91-1.364h-0.909l-0.909-1.364h-0.91l-0.454-.909h-0.91l-0.909-1.364h-0.909q-0.228-.456-0.455-0.91l-1.364-.455v-0.454h-0.91l-0.454-.91h-0.91l-0.454-.909H633.2q-0.227-.454-0.454-0.91h-0.91v-0.454h-0.909q-0.227-.454-0.455-0.91l-1.818-.454q-0.228-.456-0.455-0.91H627.29v-0.455h-0.91l-0.454-.909h-0.91v-0.455h-0.909V387.7H623.2v-0.455h-0.91v-0.455h-0.909l-0.455-.909-2.728-.91v-0.454h-0.909v-0.455l-2.728-.91V382.7H613.2v-0.455h-0.909v-0.455l-2.728-.909v-0.455l-2.274-.455v-0.454h-0.909v-0.455h-1.364v-0.455H604.1v-0.454l-2.729-.455v-0.455h-0.909v-0.455l-4.092-.909c-5.742-2.48-12.824-3.893-19.1-5.911H575c-2.072-.648-5.134-1.187-7.275-1.819h-3.183v-0.455h-3.183v-0.455l-10-.454v-0.455H528.171ZM494.526,553.217l10.457,0.454v0.455l4.092,0.909v0.455l2.728,0.91v0.454l1.819,0.455,0.455,0.909h0.909l0.909,1.365h0.91l1.818,2.273,1.819,1.364v0.91l1.364,0.909v0.91l0.909,0.454v0.91h0.455v0.909h0.455v0.91h0.454v0.909h0.455v0.909h0.455q0.226,1.365.454,2.729H525.9v1.364h0.455q0.227,5.229.454,10.458h-0.454v2.729H525.9v1.364h-0.455v1.364h-0.454v1.364h-0.455v0.909h-0.455v0.91h-0.454v0.909H523.17v0.91h-0.455v0.909l-0.909.455v0.909l-1.364.91v0.909l-2.728,2.274L516.8,603.69H515.9l-0.909,1.364h-0.909l-0.455.909h-0.909v0.455H511.8v0.455h-0.909v0.455h-0.909v0.454h-0.91v0.455h-1.364v0.455h-1.364v0.454h-1.364V609.6h-2.728v0.455L491.8,609.6v-0.455h-1.364v-0.454H489.07v-0.455h-1.364v-0.455H486.8v-0.454h-0.909v-0.455h-0.909v-0.455h-0.91v-0.455h-0.909l-0.455-.909H481.8l-0.909-1.364h-0.91q-1.135-1.365-2.273-2.728l-1.364-.91v-0.909l-1.364-.91v-0.909l-0.909-.455V595.96h-0.455v-0.91h-0.455v-0.909H472.7v-0.91h-0.455v-0.909h-0.455q-0.226-1.364-.454-2.728h-0.455V588.23h-0.455q-0.226-5.229-.454-10.459h0.454v-2.728h0.455v-1.364h0.455v-1.364h0.454V570.95h0.455v-0.909H472.7v-0.909h0.454v-0.91h0.455v-0.909h0.455V566.4l0.909-.454v-0.91l1.364-.909v-0.91l1.364-.909,2.273-2.728h0.91l0.909-1.365H482.7l0.455-.909h0.909v-0.455h0.91V556.4h0.909v-0.455H486.8V555.49Z"/>
</svg>
