<svg xmlns="http://www.w3.org/2000/svg" xmlns:xlink="http://www.w3.org/1999/xlink" width="192.024" height="192.024" viewBox="0 0 1080 1080">
  <defs>
    <style>
      .cls-1 {
        fill-rule: evenodd;
        fill: url(#linear-gradient);
      }
    </style>
    <linearGradient id="linear-gradient" x1="1026.204" y1="0.031" x2="53.796" y2="1080" gradientUnits="userSpaceOnUse">
      <stop offset="0" stop-color="#22dcfd" stop-opacity="0.8"/>
      <stop offset="0.477" stop-color="#1c91e2"/>
      <stop offset="1" stop-color="#143ce7"/>
    </linearGradient>
  </defs>
  <path id="Logo_1" data-name="Logo 1" class="cls-1" d="M529.99,0.284c5.6-.06,15.466-0.829,20.006.455h14.549V1.194c2.492,0.7,6.428-.171,8.639.455H580V2.1h5.911V2.558h5V3.012l9.093,0.455V3.922H604.1V4.377h3.638C612.587,5.789,618.9,5.705,623.652,7.1h3.183V7.559h2.728V8.014h2.728V8.469h2.728c2.043,0.627,5.235,1.181,7.275,1.819h2.273v0.455l6.82,0.909c5.605,1.773,12.292,2.694,17.732,4.547l12.731,2.728c10.48,3.782,22.372,6.133,32.282,10.458l4.092,0.909v0.455l4.092,0.91v0.455h0.909v0.455h1.364v0.455l2.728,0.455v0.455h0.91v0.455l2.728,0.455V35.3h0.909v0.455l2.728,0.455V36.66H735.5v0.455h1.364V37.57h0.91v0.455l2.273,0.455v0.455h1.364v0.455h0.909v0.455h1.364V40.3h0.91v0.455h1.364v0.455l1.819,0.455v0.455h1.364v0.455h0.909v0.455h1.364v0.455l1.819,0.455V44.39H754.6v0.455h0.909V45.3l1.819,0.455v0.455h1.364v0.455H759.6v0.455l1.819,0.455v0.455h1.364v0.455h0.909v0.455H764.6v0.455l2.728,0.909v0.455h1.364v0.455h0.91v0.455l1.818,0.455v0.455h0.91v0.455h0.909v0.455h0.909v0.455h0.91v0.455h0.909v0.455l1.819,0.455v0.455l3.183,0.909,0.454,0.909,1.819,0.455v0.455h0.909v0.455h0.91V59.4h0.909V59.85h0.909V60.3l1.819,0.455v0.455l1.819,0.455v0.455h0.909v0.455h0.909v0.455h0.91v0.455h0.909l0.455,0.909h0.909v0.455h0.909v0.455h0.91v0.455h0.909v0.455h0.909l0.455,0.909h0.909V67.58h0.91v0.455h0.909v0.455h0.909q0.228,0.455.455,0.909h0.909v0.455h0.91v0.455h0.909v0.455h0.909q0.228,0.455.455,0.909H808.7v0.455h0.91l0.454,0.909,2.728,0.909q0.228,0.455.455,0.909l1.819,0.455q0.227,0.455.455,0.909l1.818,0.455,0.455,0.909,1.819,0.455,0.454,0.909,1.819,0.455q0.226,0.455.455,0.909l1.818,0.455v0.455l1.364,0.455,0.455,0.909L827.8,83.04l0.454,0.909h0.91l0.454,0.909h0.91l0.454,0.909h0.91l0.454,0.909,1.819,0.455,0.455,0.909h0.909l0.455,0.909h0.909l0.455,0.909h0.909v0.455l1.364,0.455,0.455,0.91h0.909l0.455,0.909h0.909v0.455l1.364,0.455,0.455,0.909h0.909l0.909,1.364h0.91v0.455l1.364,0.455,0.454,0.909h0.91l0.909,1.364h0.91v0.455l1.364,0.455,0.454,0.909h0.91l0.454,0.909,1.364,0.455q0.455,0.683.91,1.364h0.909q0.226,0.454.455,0.91h0.909q0.226,0.454.455,0.909l1.364,0.455,0.909,1.364h0.909l0.91,1.364h0.909l0.909,1.364h0.91l0.909,1.364h0.909l1.364,1.819h0.91l0.909,1.364h0.909l1.364,1.819h0.91L876,118.052H876.9l1.364,1.818h0.909l1.364,1.819h0.91l1.818,2.274h0.91q0.227,0.455.455,0.909l1.364,0.91v0.454h0.909l1.819,2.274h0.909l2.273,2.728h0.91l2.728,3.183h0.909l2.728,3.183h0.909l1.819,2.273,5,4.093q2.046,2.273,4.092,4.547c4.2,3.041,7.306,6.85,10.913,10.458,3.461,3.462,7.082,6.419,10,10.458l5.911,5.456v0.91l4.547,4.092V180.8l3.637,3.183v0.91l2.728,2.273v0.91l2.728,2.273v0.91l2.728,2.273v0.909l2.274,1.819v0.91l1.818,1.364v0.909l2.274,1.819v0.909l1.818,1.364v0.91l0.91,0.455q0.226,0.681.454,1.364l1.819,1.364v0.909q0.909,0.682,1.819,1.364v0.91l1.364,0.909v0.909q0.681,0.456,1.364.91v0.909l1.364,0.91v0.909l1.364,0.91v0.909L974.2,219v0.91l1.364,0.909q0.227,0.683.454,1.364l0.91,0.455v0.909L977.841,224v0.909l1.364,0.91v0.909l0.909,0.455v0.909l1.364,0.91v0.909l0.91,0.455v0.909l0.909,0.455v0.909l1.364,0.91v0.909l0.909,0.455q0.228,0.681.455,1.364h0.455v0.909l0.909,0.455v0.909L988.3,239v0.91l0.91,0.454v0.91l0.909,0.454v0.91l0.91,0.454V244l0.909,0.455v0.909l0.909,0.455v0.909l0.91,0.455V248.1l0.909,0.455q0.227,0.909.455,1.819l0.909,0.454v0.91l0.909,0.454v0.91l0.91,0.455v0.909H998.3v0.909l0.91,0.455q0.226,0.909.454,1.819h0.455l0.45,1.364c0.31,0.152.61,0.3,0.91,0.455,0.16,0.606.31,1.212,0.46,1.818,0.3,0.152.6,0.3,0.91,0.455l0.45,1.819c0.31,0.152.61,0.3,0.91,0.455,0.15,0.606.31,1.212,0.46,1.818,0.3,0.152.6,0.3,0.91,0.455,0.3,0.91.6,1.819,0.91,2.728l0.9,0.455c0.31,0.909.61,1.819,0.91,2.728,0.31,0.152.61,0.3,0.91,0.455,0.31,0.909.61,1.819,0.91,2.728,0.31,0.152.61,0.3,0.91,0.455,0.15,0.606.31,1.213,0.46,1.819h0.45v0.909h0.46v0.91c0.3,0.151.6,0.3,0.91,0.454v0.91h0.45v0.909h0.45v0.909h0.46v0.91h0.45v0.909c0.31,0.152.61,0.3,0.91,0.455,1.06,2.425,2.13,4.85,3.19,7.275,0.3,0.152.6,0.3,0.91,0.455v0.909h0.45v0.91h0.45v0.909h0.46v0.909h0.45v0.91h0.46v0.909h0.45v0.91h0.46v0.909h0.45v0.909h0.46v0.91h0.45v0.909h0.46l0.45,1.819h0.46v0.909h0.45v1.365h0.46l0.45,1.818h0.45v0.91h0.46v0.909h0.45c0.31,0.91.61,1.819,0.91,2.728h0.46v1.364h0.45v0.91h0.46c0.3,0.909.6,1.819,0.91,2.728h0.45v1.364h0.46v0.91h0.45c0.15,0.606.3,1.212,0.46,1.818h0.45v1.365h0.45v0.909h0.46l0.45,1.819h0.46v1.364h0.45c0.16,0.606.31,1.212,0.46,1.819h0.45v1.364h0.46v0.909h0.45v1.364h0.46l0.45,1.819h0.46v1.364h0.45v0.91h0.46v1.364h0.45v0.909h0.46l0.45,2.274h0.45v1.364h0.46v0.909h0.45c0.16,0.909.31,1.819,0.46,2.728h0.45v0.91h0.46v1.364h0.45V350.4c4.53,10.34,7.87,22.241,11.82,33.193v1.819h0.46v1.364h0.45V388.6h0.46v1.364h0.45v1.364h0.46c0.3,1.667.6,3.335,0.91,5h0.45c0.3,1.667.61,3.334,0.91,5h0.46l0.9,5.457c1.58,4.6,2.59,10.33,4.1,15l0.45,4.547c2.34,7.237,2.77,16.177,5,23.644v2.729c0.74,2.462,1.1,6.172,1.82,8.639q0.225,3.41.46,6.82c1.27,4.423.99,10.518,2.27,15.006v4.547h0.45v5h0.46v5.457h0.45q0.225,7.5.46,15h0.45v11.822c1.39,4.985.46,14.059,0.46,20.007,0,3.381.29,7.82-.46,10.458v6.366q-0.225,6.819-.45,13.641h-0.46q-0.675,10.685-1.36,21.371h-0.46v4.092h-0.45v4.092h-0.45v3.638h-0.46v3.638l-5.91,35.466h-0.45V649.6h-0.46v2.274h-0.45v2.273h-0.46v2.274c-2.3,7.071-3.56,15.4-5.91,22.28-0.61,2.879-1.21,5.76-1.82,8.639h-0.45q-0.915,3.865-1.82,7.73h-0.46c-0.3,1.516-.6,3.032-0.91,4.547h-0.45v1.364h-0.45v1.364h-0.46v1.365h-0.45c-0.16.909-.31,1.818-0.46,2.728h-0.45v1.819h-0.46c-0.3,1.364-.6,2.728-0.91,4.092h-0.45v1.364h-0.46v0.909h-0.45c-0.15.91-.3,1.819-0.46,2.729h-0.45v1.364h-0.46v1.364h-0.45v1.364h-0.45V722.8h-0.46v0.909h-0.45c-0.31,1.364-.61,2.729-0.91,4.093h-0.46v0.909h-0.45c-0.15.909-.31,1.819-0.46,2.728h-0.45v0.91h-0.46v1.364h-0.45v0.909h-0.46l-0.45,2.728h-0.46v0.91h-0.45v1.364h-0.45c-0.16.758-.31,1.516-0.46,2.273h-0.45v0.91h-0.46v1.364h-0.45c-0.16.606-.31,1.213-0.46,1.819h-0.45v1.364h-0.46v0.909h-0.45v1.364h-0.46l-0.45,1.819h-0.46v1.364h-0.45c-0.15.606-.3,1.213-0.46,1.819h-0.45V756h-0.46v0.91h-0.45l-0.45,1.818h-0.46v1.364h-0.45V761h-0.46v0.909h-0.45v0.91h-0.46v1.364h-0.45v0.909h-0.46V766h-0.45c-0.3.909-.61,1.818-0.91,2.728h-0.46v1.364h-0.45V771h-0.46l-0.45,1.819h-0.45v0.909h-0.46v0.91h-0.45v0.909h-0.46v0.91h-0.45v0.909h-0.46c-0.3.909-.6,1.819-0.91,2.728h-0.45c-0.3.91-.61,1.819-0.91,2.728h-0.46l-0.45,1.819h-0.46l-0.45,1.819h-0.45v0.91h-0.46v0.909h-0.45v0.909h-0.46v0.91h-0.45c-0.31.909-.61,1.819-0.91,2.728-0.31.151-.61,0.3-0.91,0.455v0.909h-0.46V795.1h-0.45v0.91h-0.46v0.909h-0.45v0.91h-0.46v0.909l-0.9.455V800.1h-0.46v0.91h-0.45v0.909h-0.46v0.909c-0.3.152-.6,0.3-0.91,0.455-0.3.909-.6,1.819-0.91,2.728-0.3.152-.6,0.3-0.91,0.455-0.3.909-.6,1.819-0.91,2.728-0.3.152-.6,0.3-0.91,0.455l-0.9,2.728c-0.31.152-.61,0.3-0.91,0.455-0.16.606-.31,1.212-0.46,1.819-0.3.151-.6,0.3-0.91,0.454l-0.45,1.819c-0.31.152-.61,0.3-0.91,0.455-0.15.606-.31,1.212-0.46,1.819-0.3.151-.6,0.3-0.91,0.454l-0.45,1.819c-0.3.152-.61,0.3-0.91,0.455v0.909h-0.455v0.91h-0.454q-0.228.681-.455,1.364l-0.909.454q-0.228.91-.455,1.819l-0.909.455v0.909l-0.91.455v0.909l-0.909.455q-0.228.909-.455,1.819l-0.909.455v0.909l-0.909.455v0.909h-0.455q-0.228.683-.455,1.364l-0.909.455v0.909l-0.909.455v0.909l-0.91.455v0.909l-0.909.455v0.91l-0.91.454v0.91l-0.909.454v0.91H985.57q-0.227.681-.454,1.364l-0.91.455v0.909l-1.364.909v0.91h-0.454q-0.228.681-.455,1.364l-0.909.455v0.909l-0.91.455q-0.227.681-.454,1.364l-1.364.909v0.91l-0.91.454v0.91l-0.909.454q-0.226.683-.455,1.365l-1.364.909v0.909l-0.909.455v0.909l-1.364.91v0.909l-1.364.91v0.909l-1.364.909v0.91l-1.819,1.364v0.909l-0.909.455q-0.228.683-.455,1.364l-1.818,1.364v0.91l-1.364.909v0.909l-1.819,1.365v0.909l-2.273,1.819v0.909l-0.91.455V881.5l-0.909.454v0.91l-0.909.454-0.91,1.364h-0.454v0.91l-2.274,1.819v0.909l-2.728,2.274V891.5l-2.728,2.273v0.91l-3.183,2.728v0.91l-1.818,1.364-1.364,1.818h-0.455v0.91l-5,4.547v0.909l-9.094,8.64v0.909l-4.546,4.092-4.547,5h-0.91L911,932.421l-2.728,2.274-0.454.909h-0.91l-3.637,4.092H902.82l-0.454.91h-0.91l-3.182,3.637h-0.91l-3.182,3.638h-0.91L891,950.609H890.09l-1.819,2.274h-0.909q-0.91,1.135-1.819,2.273h-0.909l-1.819,2.274h-0.91l-1.818,2.273h-0.91l-1.364,1.819H876.9l-1.364,1.819h-0.909q-0.682.909-1.364,1.819h-0.91l-0.454.909-1.364.455-1.364,1.818h-0.91l-0.909,1.365h-0.909l-0.91,1.364h-0.909l-0.909,1.364h-0.91L861.9,973.8h-0.909l-0.91,1.364-1.364.455-0.454.909h-0.91l-0.454.909h-0.91L855.08,978.8h-0.909q-0.228.454-.455,0.909h-0.909l-0.91,1.364h-0.909v0.455l-1.364.455-0.455.909H848.26l-0.91,1.364h-0.909q-0.227.454-.455,0.909l-1.364.455v0.455h-0.909q-0.226.455-.455,0.909h-0.909l-0.455.91h-0.909q-0.227.455-.455,0.909h-0.909q-0.226.454-.455,0.909h-0.909q-0.226.456-.455,0.91h-0.909q-0.227.455-.455,0.909h-0.909q-0.228.454-.455,0.91h-0.909l-0.455.909H832.8l-0.455.909h-0.909q-0.228.456-.455,0.91l-1.818.454q-0.228.456-.455,0.91H827.8q-0.228.454-.455,0.909l-1.364.455v0.455l-1.819.454q-0.227.456-.454,0.91l-1.819.453v0.46l-1.364.45c-0.152.3-.3,0.61-0.455,0.91-0.606.15-1.212,0.3-1.818,0.46q-0.228.45-.455,0.9h-0.909v0.46h-0.91c-0.151.3-.3,0.61-0.454,0.91l-1.819.45c-0.152.31-.3,0.61-0.455,0.91-0.909.31-1.819,0.61-2.728,0.91-0.151.31-.3,0.61-0.455,0.91-0.909.3-1.818,0.61-2.728,0.91-0.151.3-.3,0.61-0.454,0.91-0.91.3-1.819,0.61-2.728,0.91-0.152.3-.3,0.61-0.455,0.91h-0.909v0.45h-0.91v0.46h-0.909v0.45h-0.909c-0.152.31-.3,0.61-0.455,0.91H798.7v0.46h-0.91v0.45h-0.909v0.46h-0.909v0.45h-0.91v0.46h-0.909c-0.152.3-.3,0.6-0.455,0.91l-1.818.45v0.45h-0.91v0.46h-0.909v0.45h-0.909v0.46h-0.91v0.45c-0.606.16-1.212,0.31-1.818,0.46v0.45c-0.607.15-1.213,0.31-1.819,0.46v0.45H783.7V1022h-0.91v0.45h-0.909c-0.152.3-.3,0.61-0.455,0.91h-0.909v0.46H779.6v0.45H778.24v0.46l-1.818.45v0.45c-0.909.31-1.819,0.61-2.728,0.91V1027h-0.91v0.45h-0.909v0.46h-0.909v0.45c-0.91.31-1.819,0.61-2.728,0.91v0.46h-1.364v0.45h-0.91v0.46h-0.909v0.45c-0.909.3-1.819,0.61-2.728,0.91v0.46h-1.364v0.45h-0.909v0.45c-0.607.16-1.213,0.31-1.819,0.46v0.45h-1.364v0.46l-1.819.45v0.46h-1.364v0.45c-0.606.15-1.212,0.31-1.818,0.46V1037h-1.364v0.46l-1.819.45v0.46h-1.364v0.45h-0.909v0.46l-2.274.45v0.46h-1.364v0.45l-1.819.45v0.46h-1.364V1042h-0.909v0.46l-2.728.45v0.46h-0.909v0.45c-0.758.15-1.516,0.31-2.274,0.46v0.45c-0.909.15-1.818,0.31-2.728,0.46v0.45h-0.909v0.46l-2.728.45v0.46H725.5v0.45h-1.364v0.46h-1.364v0.45h-1.364v0.45h-1.364v0.46h-0.91v0.45l-9.548,2.73c-8.96,3.58-19.34,5.77-28.644,9.1q-2.729.45-5.456,0.91c-3.918,1.33-8.788,2.36-12.731,3.63h-2.273v0.46h-1.819v0.45h-2.273c-5.4,1.75-12.187,2.41-17.733,4.09q-14.547,2.28-29.1,4.55c-2.577.15-5.154,0.31-7.73,0.46v0.45h-4.092v0.46h-4.547v0.45h-4.546v0.46h-5.456v0.45h-6.366v0.45h-7.729v0.46c-2.863.81-7.655-.34-10.458,0.45H535.9c-5.39.01-12.718,0.83-17.278-.45-2.755-.78-7.071.24-9.548-0.46h-4.546l-8.639-.45v-0.45h-5.456v-0.46h-4.547v-0.45H481.34v-0.46q-9.091-.9-18.187-1.82c-3.538-1.04-8.317-1.22-11.821-2.27H448.6v-0.46h-2.728v-0.45H443.6v-0.46h-2.728c-6.122-1.88-13.569-2.61-19.551-4.54-2.728-.46-5.457-0.91-8.184-1.37v-0.45c-1.213-.15-2.425-0.3-3.638-0.46v-0.45h-1.818v-0.46h-1.819v-0.45h-1.819v-0.45h-1.364v-0.46h-1.818v-0.45c-1.213-.16-2.425-0.31-3.638-0.46-8.658-3.12-18.454-5.3-26.825-8.64l-9.549-2.73v-0.45h-0.909v-0.46l-2.728-.45v-0.45c-0.909-.16-1.819-0.31-2.728-0.46v-0.45h-0.909v-0.46l-2.728-.45v-0.46h-0.91v-0.45c-0.909-.15-1.818-0.31-2.728-0.46v-0.45H346.3v-0.46h-1.364v-0.45H344.03v-0.46l-2.728-.45V1042h-0.91v-0.45h-1.364v-0.46l-1.818-.45v-0.45h-1.364v-0.46h-0.91v-0.45c-0.757-.16-1.515-0.31-2.273-0.46v-0.45H331.3v-0.46l-1.819-.45V1037h-1.364v-0.45c-0.606-.15-1.212-0.31-1.819-0.46v-0.45h-1.364v-0.46l-1.818-.45v-0.46h-1.364v-0.45h-0.91v-0.46l-1.818-.45v-0.45h-1.364V1032h-0.91v-0.45H315.84v-0.46c-0.909-.3-1.819-0.61-2.728-0.91v-0.45h-1.364v-0.46c-0.909-.3-1.819-0.6-2.728-0.91v-0.45h-0.909v-0.46H307.2V1027h-0.909v-0.46h-0.909v-0.45h-0.91v-0.46h-0.909v-0.45h-0.909v-0.45h-0.91v-0.46h-1.364v-0.45h-0.909v-0.46h-0.909c-0.152-.3-0.3-0.61-0.455-0.91H297.2V1022h-0.91v-0.46H295.38v-0.45h-0.909v-0.46l-1.819-.45v-0.46h-0.91v-0.45h-0.909v-0.46h-0.909v-0.45h-0.91v-0.46l-2.728-.9c-0.151-.31-0.3-0.61-0.454-0.91h-0.91v-0.46h-0.909v-0.45H283.1v-0.46h-0.91v-0.45c-0.606-.15-1.212-0.31-1.818-0.46-0.152-.3-0.3-0.6-0.455-0.91h-0.909v-0.45H278.1v-0.46h-0.909v-0.45h-0.909c-0.152-.3-0.3-0.61-0.455-0.91-0.909-.3-1.819-0.61-2.728-0.91-0.152-.3-0.3-0.61-0.455-0.91-0.909-.3-1.819-0.61-2.728-0.91-0.151-.3-0.3-0.6-0.454-0.91l-1.819-.45c-0.152-.31-0.3-0.61-0.455-0.91-0.909-.31-1.819-0.61-2.728-0.91-0.151-.3-0.3-0.61-0.454-0.91-0.607-.15-1.213-0.3-1.819-0.46l-0.455-.9h-0.909v-0.46h-0.909v-0.45c-0.455-.16-0.91-0.31-1.365-0.46-0.151-.3-0.3-0.61-0.454-0.91l-1.819-.453-0.455-.91-1.818-.454V997.9l-1.364-.455-0.455-.909h-0.909l-0.455-.91L249,995.17q-0.226-.454-0.454-0.91h-0.91l-0.454-.909h-0.91l-0.454-.909h-0.91l-0.454-.91h-0.91l-0.454-.909h-0.91q-0.226-.455-0.454-0.91h-0.91v-0.454l-1.364-.455L239,987.9h-0.91q-0.227-.456-0.454-0.91h-0.91l-0.454-.909h-0.91v-0.455L234,985.166l-0.454-.909h-0.91l-0.909-1.364h-0.909v-0.455l-1.364-.454-0.455-.91h-0.909l-0.91-1.364H226.27l-0.455-.909h-0.909q-0.454-.683-0.91-1.365h-0.909q-0.226-.454-0.455-0.909h-0.909q-0.227-.455-0.455-0.909l-1.364-.455L219,973.8h-0.909q-0.455-.682-0.91-1.364h-0.909l-0.909-1.364h-0.91l-0.909-1.364H212.63l-0.91-1.365h-0.909l-1.364-1.818-1.364-.455-0.455-.909h-0.909l-1.364-1.819h-0.909l-1.364-1.819h-0.91l-1.364-1.819H199.9l-0.455-.909-1.364-.91V957.43h-0.909l-1.819-2.274h-0.909l-1.819-2.273h-0.909l-1.819-2.274h-0.909l-2.274-2.728H185.8l-3.183-3.638h-0.909l-3.183-3.637H177.62l-4.547-5h-0.909l-8.639-9.094h-0.909l-4.092-4.547-5-4.547v-0.909l-9.093-8.64v-0.909l-5-4.547V901.5h-0.455l-1.364-1.818-1.819-1.364v-0.91l-3.182-2.728v-0.91q-1.365-1.135-2.728-2.273v-0.909l-2.728-2.274v-0.909l-0.91-.455-0.909-1.364h-0.455v-0.91l-2.273-1.818v-0.91L121.7,881.5V881.04l-0.91-.455v-0.909l-2.273-1.819v-0.909l-1.819-1.365v-0.909l-0.909-.455q-0.228-.681-0.455-1.364l-1.819-1.364v-0.909l-1.364-.91v-0.909l-1.818-1.364v-0.91l-1.364-.909v-0.909l-1.364-.91v-0.909q-0.683-.454-1.364-0.91v-0.909l-0.91-.455v-0.909l-0.909-.455q-0.228-.681-0.455-1.364l-1.364-.909v-0.91l-0.909-.454v-0.91l-1.364-.909v-0.91l-0.909-.454v-0.91l-1.364-.909v-0.909l-0.909-.455V848.3l-1.364-.909v-0.909l-0.909-.455-0.455-1.364H93.961v-0.91l-0.909-.454v-0.91l-0.909-.454v-0.91l-0.909-.455v-0.909l-0.909-.455V838.3l-0.909-.455v-0.909l-0.909-.455V835.57l-0.909-.455v-0.909l-0.909-.455v-0.909l-0.909-.455-0.455-1.819-0.909-.455V829.2l-0.909-.455V827.84l-0.909-.455-0.455-1.819H81.684L81.23,824.2l-0.909-.454v-0.91H79.866v-0.909l-0.909-.455L78.5,819.655l-0.909-.454-0.455-1.819-0.909-.455-0.455-1.819-0.909-.454-0.455-1.819L73.5,812.38v-0.909H73.046v-0.91H72.591v-0.909l-0.909-.455-0.909-2.728-0.909-.455v-0.909H69.408V804.2H68.954v-0.909l-0.909-.455v-0.909H67.59v-0.909H67.135V800.1H66.68v-0.909l-0.909-.455V797.83H65.316v-0.91H64.862v-0.909H64.407V795.1H63.952L63.5,793.283l-0.909-.455L61.679,790.1H61.224l-0.909-2.728H59.86l-0.455-1.819H58.951L58.5,783.734H58.042v-0.91H57.587v-0.909H57.132v-0.909H56.678V780.1H56.223l-0.909-2.728H54.859v-0.909H54.4v-0.91H53.95V774.64H53.495v-0.91H53.04v-0.909H52.586L52.131,771H51.676v-0.909H51.222v-1.364H50.767v-0.91H50.312V766.91H49.858l-0.909-2.728H48.494v-1.364H48.039v-0.91H47.584l-0.455-1.819H46.675v-1.364H46.22v-0.909H45.765v-0.909H45.311V756H44.856v-1.364H44.4l-0.455-1.819H43.492V751.45H43.037l-0.455-1.819H42.128v-1.364H41.673v-0.909H41.219v-1.364H40.764l-0.455-1.819H39.855v-1.364H39.4V741.9H38.945v-1.364H38.491v-0.909H38.036l-0.455-2.274H37.127l-0.455-2.728H36.217v-0.909H35.763v-1.364H35.308v-0.91H34.853L34.4,728.715H33.944v-0.909H33.489l-0.455-2.729H32.58v-1.364H32.125V722.8H31.671V721.44H31.216v-1.364H30.761v-1.364H30.307v-1.364H29.852v-1.365H29.4v-1.364H28.943V713.71H28.488v-1.364H28.033v-1.364H27.579v-1.364H27.124v-1.364H26.669v-1.819H26.215v-1.364H25.76v-1.364H25.305v-1.365H24.851v-1.364H24.4v-1.364H23.941V697.8H23.487v-1.364H23.032v-1.364H22.577v-1.819c-2.195-6.071-3.788-13.326-5.911-19.552l-1.364-7.73c-1.158-3.572-2.031-8.142-3.183-11.822l-0.909-6.366H10.756v-2.273c-0.658-2.126-1.191-5.2-1.819-7.275V635.5c-0.678-2.26-1.153-5.465-1.819-7.73v-3.182c-1.063-3.612-1.215-8.613-2.273-12.277v-3.638c-1.391-4.84-.878-11.459-2.273-16.369v-5H2.117v-5.456H1.662v-6.366H1.208V567.3H0.753V555.474C-0.6,550.613.3,540.5,0.3,534.558c0-3.579.208-7.568,0.455-10.458,0.3-3.574-.354-8.046.455-10.913V505H1.662v-6.366H2.117v-5.911H2.572v-4.547H3.026l0.455-9.094,5.911-39.559,8.639-38.195h0.455l0.909-5h0.455l0.909-5h0.455v-1.364h0.455V388.6h0.455l0.455-3.183h0.455l1.364-5.911h0.455v-1.819c3.261-8.947,6.286-18.779,10-27.282l0.455-2.728h0.455v-0.91h0.455V345.4h0.455v-0.909h0.455q0.227-1.365.455-2.728h0.455v-0.91h0.455v-1.364h0.455l0.455-2.273h0.455v-0.91h0.455v-1.364h0.455l0.455-1.819h0.455v-1.364h0.455v-0.909h0.455v-1.364h0.455l0.455-1.819h0.455v-1.364H44.4V325.4h0.455l0.455-1.818h0.455v-1.365H46.22V321.3h0.455l0.455-1.819h0.455V318.12h0.455v-0.909h0.455l0.909-2.729h0.455v-1.364h0.455l0.455-1.818h0.455v-0.91h0.455v-0.909h0.455l0.909-2.728h0.455v-1.365H53.95v-0.909H54.4l0.455-1.819h0.455v-0.909h0.455v-0.91h0.455v-0.909h0.455v-0.909h0.455v-0.91h0.455V297.2h0.455v-0.91H58.5v-0.909h0.455v-0.909h0.455v-0.91H59.86v-0.909l0.909-.455,3.183-7.275,0.909-.455v-0.909h0.455v-0.91h0.455v-0.909h0.455v-0.909H66.68v-0.91l0.909-.454v-0.91h0.455v-0.909H68.5v-0.91h0.455v-0.909l0.909-.455,0.909-2.728,0.909-.455,0.909-2.728,0.909-.455,0.909-2.728,0.909-.455,0.455-1.818,0.909-.455,0.455-1.819,0.909-.455,0.455-1.818h0.455l0.455-1.364,0.909-.455,0.455-1.819,0.909-.455v-0.909l0.909-.455,0.455-1.819H83.5l0.455-1.364,0.909-.454,0.455-1.819,0.909-.455v-0.909l0.909-.455v-0.909H87.6l0.455-1.364L88.959,244v-0.91l0.909-.454v-0.91l0.909-.454v-0.91l0.909-.454V239l0.909-.455v-0.909l0.909-.455v-0.909h0.455l0.455-1.364,0.909-.455v-0.909l1.364-.91v-0.909h0.455l0.455-1.364,0.909-.455V229l1.364-.91V227.18l0.91-.455v-0.909l1.364-.91V224l0.909-.455v-0.909l0.909-.455q0.228-.681.455-1.364l1.364-.909V219l1.364-.909v-0.909l1.364-.91v-0.909l1.364-.91v-0.909l1.364-.91V211.72l1.364-.909V209.9l0.909-.454v-0.455l0.91-.455v-0.909l1.818-1.364v-0.91l1.364-.909v-0.91q0.91-.681,1.819-1.364v-0.909l2.274-1.819v-0.909l0.909-.455v-0.455l0.909-.454v-0.91l2.274-1.819v-0.909q1.364-1.137,2.728-2.273v-0.91l1.364-.909,0.909-1.364h0.455v-0.91l2.728-2.273v-0.91l3.637-3.183v-0.909l4.547-4.092v-0.91h0.454q0.682-.909,1.364-1.819l4.092-3.637c3.042-4.2,6.85-7.306,10.458-10.913,3.462-3.462,6.419-7.083,10.457-10l5.911-6.366H175.8l4.092-4.547h0.91l2.728-3.183h0.909l2.728-3.183h0.909l2.274-2.728h0.909l1.819-2.274h0.909l1.819-2.273h0.909l1.819-2.274h0.909l0.455-.909h0.455q0.226-.454.454-0.91h0.91l0.454-.909h0.455l0.455-.909h0.909l1.364-1.819h0.909l1.364-1.819h0.91l0.454-.909,1.364-.455,1.364-1.819h0.91l0.909-1.364h0.909l0.91-1.364h0.909l0.909-1.364h0.91L219,105.775l1.364-.455,0.455-.909h0.909l0.455-.91h0.909L224,102.137h0.91q0.226-.454.455-0.909h0.909l0.909-1.364h0.91l0.454-.909h0.91l0.909-1.364h0.909V97.136l1.364-.455,0.455-.909H234l0.91-1.364h0.909q0.226-.455.455-0.909l1.364-.455V92.588h0.909L239,91.679h0.909l0.455-.91h0.909l0.455-.909h0.909l0.455-.909H244l0.455-.909h0.909l0.455-.909,1.818-.455q0.228-.455.455-0.909H249q0.228-.455.455-0.909h0.909q0.228-.455.455-0.909h0.909q0.228-.455.455-0.909l1.819-.455V82.13l1.364-.455,0.454-.909h0.91V80.312h0.909L258.1,79.4l1.819-.455,0.454-.909,1.819-.455q0.226-.455.455-0.909l1.818-.455,0.455-.909,1.819-.455,0.454-.909,2.728-.909,0.455-.909h0.909V71.672h0.91l0.454-.909h0.91V70.308h0.909V69.853h0.909V69.4h0.91l0.454-.909h0.91V68.035h0.909V67.58h0.909V67.125h0.91l0.454-.909h0.91V65.761h0.909V65.306h0.909V64.852h0.91V64.4h0.909l0.455-.909,2.728-.909V62.124l1.818-.455V61.214h0.91V60.759H292.2V60.3h0.909V59.85h0.91V59.4h0.909V58.941h0.91V58.486h0.909V58.031h0.909V57.577h0.91l0.454-.909h0.91V56.212h1.364V55.758l2.728-.91V54.394h0.909V53.939h0.909V53.484h0.91V53.029h0.909V52.575h0.909V52.12h0.91V51.665h0.909V51.211h0.909V50.756l4.092-1.364V48.937l1.819-.455V48.028h1.364V47.573h0.909V47.118l1.819-.455V46.209h1.364V45.754h0.909V45.3l1.819-.455V44.39h1.364V43.935l1.819-.455V43.026h1.364V42.571h0.909V42.117h1.364V41.662l1.819-.455V40.753h1.364V40.3H336.3V39.843h1.364V39.389h0.91V38.934l2.273-.455V38.024h1.364V37.57h0.909V37.115h1.364V36.66h0.91V36.206l2.728-.455V35.3h0.909V34.841H350.4V34.387h1.364V33.932h0.909V33.477l4.092-.91V32.113h0.91V31.659h1.364V31.2H360.4V30.749h1.364V30.294h1.364V29.84h1.364V29.385h1.364V28.93h0.909V28.476h1.364V28.021h1.364V27.566h1.364V27.112h1.364V26.657h1.819V26.2H375.4V25.747h1.364V25.293h1.364V24.838h1.364V24.383h1.364V23.929h1.819V23.474h1.364V23.019h1.364V22.565l3.182-.455V21.655l3.183-.455V20.746l3.183-.455V19.836l3.183-.455V18.927l5.456-.909c7.092-2.423,15.476-3.581,22.733-5.911l6.82-.909c5.254-1.649,11.891-2.029,17.278-3.638h2.728V7.1h3.182V6.65h2.728V6.2h3.183V5.741h3.183V5.286h3.183V4.831l7.274-.455V3.922h4.092V3.467h4.547V3.012h4.547V2.558h5V2.1h5.911V1.648h6.82V1.194h8.639V0.739C518.754-.2,527.96,2.071,529.99.284ZM58.5,485.45a39.366,39.366,0,0,1,16.368,3.638h1.364v0.454h0.909V490H78.5v0.455l1.819,0.454v0.455l1.819,0.455,0.455,0.909,1.819,0.455,0.455,0.909h0.909L86.231,495h0.909l0.909,1.364h0.909l1.364,1.819h0.909l3.183,3.637,2.728,2.274V505l1.819,1.364v0.91l1.364,0.909v0.909l0.909,0.455q0.228,0.683.455,1.364h0.455q0.227,0.91.454,1.819l0.91,0.455q0.227,0.909.454,1.819h0.455q0.228,0.909.455,1.818h0.454v1.365h0.455V519.1h0.455v1.364h0.454v0.909h0.455q0.228,1.365.455,2.729h0.454v1.818h0.455v1.819h0.455v2.274h0.454v2.728h0.455q0.228,12.5.455,25.008h0.454v9.1h0.455v6.365h0.455v5.457h0.454v5H112.6v4.093h0.455v4.092h0.454v3.638c1.382,4.747,1.342,10.816,2.728,15.46q0.228,2.727.455,5.456c2.116,6.9,2.738,15.148,5,21.826q0.226,2.046.454,4.092c0.868,2.665,1.839,6.035,2.728,8.639q0.228,1.819.455,3.638c3.546,9.835,5.963,20.751,10,30.01l0.909,4.092H136.7v0.91h0.454q0.228,1.364.455,2.728h0.455v0.909h0.454v1.365h0.455v1.364h0.455v0.909h0.454v1.364h0.455q0.228,1.137.455,2.274h0.454v0.909H141.7V702.8h0.455q0.226,0.909.454,1.819h0.455v1.364h0.455v0.909h0.454v1.365h0.455q0.228,0.909.455,1.818h0.454v1.364h0.455v0.91h0.455q0.227,0.909.454,1.819h0.455v1.364h0.455v0.909h0.454q0.456,1.364.91,2.728h0.454v1.364h0.455q0.228,0.91.455,1.819h0.454v0.91h0.455v0.909H151.7l0.909,2.728h0.455v1.364h0.454q0.456,1.365.91,2.729h0.455V731.9h0.454v0.909H155.8v0.91h0.455v0.909h0.454v0.91h0.455v0.909l0.909,0.455q0.455,1.364.91,2.728h0.454v0.909h0.455v0.91h0.455v0.909H160.8q0.228,0.909.455,1.819l0.909,0.455v0.909h0.455v0.909h0.455v0.91h0.454v0.909h0.455v0.91l0.909,0.454q0.454,1.365.91,2.728l0.909,0.455,0.909,2.728,0.91,0.455,0.909,2.728,0.909,0.455q0.228,0.909.455,1.819l0.909,0.455q0.228,0.909.455,1.818h0.455q0.227,0.682.454,1.364l0.91,0.455q0.226,0.909.454,1.819h0.455l0.455,1.364,0.909,0.455q0.228,0.909.455,1.819L177.62,771v0.91l0.909,0.454v0.91l0.91,0.454v0.91l0.909,0.455q0.228,0.909.455,1.818l0.909,0.455v0.909l0.909,0.455v0.91l1.364,0.909v0.909l0.91,0.455q0.226,0.683.454,1.364H185.8v0.91l0.909,0.454v0.91l0.91,0.454v0.91l1.364,0.909v0.91l0.909,0.454v0.91l1.364,0.909v0.909l0.91,0.455v0.91l0.909,0.454q0.226,0.683.455,1.364,0.681,0.456,1.364.91v0.909l1.364,0.91v0.909l1.364,0.909v0.91l1.364,0.909v0.91l1.818,1.364q0.228,0.681.455,1.364l0.909,0.455v0.909l1.819,1.364v0.909l1.819,1.365v0.909l2.273,1.819v0.909l2.273,1.819v0.909l2.274,1.819v0.91l2.728,2.273v0.909l3.182,2.729v0.909q2.046,1.818,4.092,3.638v0.909L229,836.479c2.8,3.872,6.231,6.687,9.548,10l4.547,5H244l5.911,6.366h0.909l3.637,4.092h0.91l2.728,3.183h0.909l2.274,2.729h0.909q1.137,1.363,2.273,2.728h0.91l0.454,0.909h0.455l0.455,0.91h0.909l1.819,2.273h0.909l1.364,1.819h0.909L273.1,877.4h0.455l0.454,0.91h0.91l0.454,0.909,1.364,0.455q0.682,0.909,1.364,1.819h0.91l0.909,1.364h0.909l0.91,1.364h0.909l0.909,1.364h0.91l0.909,1.364,1.364,0.455,0.455,0.909h0.909l0.455,0.91h0.909l0.909,1.364h0.91l0.454,0.909h0.91l0.909,1.364h0.91l0.454,0.909h0.91v0.455l1.364,0.455,0.454,0.909h0.91l0.909,1.364h0.909l0.455,0.91h0.909l0.455,0.909h0.909q0.228,0.454.455,0.91h0.909l0.455,0.909,1.819,0.455,0.454,0.909h0.91q0.226,0.454.454,0.91l1.364,0.454v0.455l1.819,0.455v0.454l1.364,0.455,0.455,0.909,1.818,0.455v0.455l1.364,0.455q0.228,0.455.455,0.909l1.819,0.455,0.454,0.909,1.819,0.455,0.455,0.909,2.728,0.91,0.454,0.909h0.91v0.455h0.909l0.455,0.909h0.909v0.455h0.91v0.454h0.909V915.6h0.909l0.455,0.91h0.909v0.454h0.91v0.455h0.909v0.455h0.909l0.455,0.909H336.3v0.455h0.91v0.454h0.909v0.455h0.909V920.6h0.91v0.455l1.818,0.454q0.228,0.455.455,0.91h0.909v0.454h0.91v0.455h0.909v0.455h0.909v0.454h0.91v0.455h0.909v0.455h0.909V925.6h0.91v0.454H350.4v0.455H351.3v0.455l1.819,0.454v0.455h0.909v0.455H355.4v0.455h0.91v0.454h0.909v0.455h0.909v0.455l2.728,0.909v0.455h1.364v0.454h0.91v0.455l2.728,0.909v0.455h1.364v0.455l1.819,0.455v0.454H370.4V935.6l1.818,0.455v0.454h1.364v0.455l1.819,0.455v0.455h1.364v0.454h0.909v0.455l2.274,0.455V939.7h1.364v0.455h0.909v0.455h1.364v0.454H384.5v0.455l2.274,0.455v0.455l2.728,0.454v0.455h0.909v0.455L394.5,944.7v0.455h0.909v0.454h1.364v0.455h1.365v0.455H399.5v0.455h1.364v0.454h1.364v0.455h1.364v0.455h1.364v0.454h1.364v0.455h1.364V949.7l2.728,0.454v0.455l2.728,0.455v0.455h1.818v0.454h1.364v0.455h1.364v0.455l3.183,0.454v0.455l3.183,0.455V954.7l3.182,0.455v0.455l5.457,0.909c4.63,1.581,10.278,2.574,15,4.093l33.191,5.911,10.912,0.909v0.455h4.092v0.454h4.546V968.8h5.457v0.455h6.365v0.455l10.912,0.454,23.643,0.455v0.455H550v0.454h2.273v0.455h1.819v0.455h1.818v0.454l2.728,0.455V973.8h0.91v0.455h1.364v0.454h0.909v0.455h1.364v0.455L565,976.072v0.455l1.818,0.455q0.228,0.455.455,0.909l1.819,0.455V978.8l1.364,0.454,0.454,0.91h0.91l0.909,1.364h0.91L575,983.348h0.909q1.137,1.363,2.273,2.728l3.638,3.183v0.909l1.818,1.364v0.91l1.364,0.909v0.909l0.91,0.455v0.909l0.909,0.455q0.228,0.909.455,1.819l0.909,0.455q0.228,0.909.455,1.817H589.1c0.152,0.61.3,1.21,0.455,1.82h0.455v1.36h0.454v0.91h0.455v1.37a39.412,39.412,0,0,1,3.637,15.91,37.508,37.508,0,0,0,10.912-1.36H609.1c2.465-.74,6.176-1.08,8.639-1.82,2.727-.3,5.456-0.61,8.184-0.91,5.666-1.75,12.663-2.31,18.187-4.09,2.727-.46,5.456-0.91,8.184-1.37,7.15-2.33,15.359-3.87,22.278-6.36h1.819v-0.46h1.364v-0.45h1.364v-0.46h1.819c8.343-3.04,17.555-5.639,25.461-9.09l4.092-.91v-0.454h0.91v-0.455h1.364V992.9h0.909v-0.454l2.728-.455v-0.455l2.274-.454v-0.455h0.909v-0.455h1.364v-0.455h0.909v-0.454h1.364V988.8l1.819-.455V987.9h1.364V987.44h0.909v-0.455h1.364V986.53l1.819-.454v-0.455h1.364v-0.455l1.819-.454v-0.455h1.364V983.8h0.909v-0.454h0.909v-0.455h0.91v-0.455h1.364v-0.454h0.909v-0.455h0.909v-0.455l2.728-.909V979.71h1.364v-0.455h0.91V978.8l1.819-.455v-0.455l1.818-.455v-0.454l1.819-.455v-0.455h0.909v-0.454h0.91v-0.455h0.909v-0.455h0.909v-0.454l2.728-.91v-0.455l1.819-.454V971.98l1.819-.455v-0.454h0.909v-0.455h0.909v-0.455h0.91v-0.454h0.909v-0.455l2.728-.91,0.455-.909h0.909v-0.455h0.909v-0.454h0.91v-0.455h0.909v-0.455h0.909q0.228-.455.455-0.909h0.909V964.25h0.91V963.8h0.909v-0.454h0.909q0.228-.454.455-0.91l2.728-.909,0.455-.909,2.728-.91q0.227-.455.455-0.909l2.728-.91,0.454-.909,1.819-.455q0.227-.455.455-0.909l1.818-.455V954.7l1.364-.454,0.455-.91H793.7v-0.454h0.91l0.454-.91,1.819-.454q0.228-.456.455-0.91h0.909l0.455-.909h0.909q0.228-.455.455-0.91l1.818-.454q0.228-.456.455-0.91h0.909q0.228-.454.455-0.909h0.909q0.228-.455.455-0.91h0.909q0.228-.455.455-0.909h0.909v-0.455l1.364-.454q0.228-.455.455-0.91h0.909q0.228-.454.455-0.909h0.909q0.228-.455.455-0.91H812.8v-0.454l1.364-.455q0.228-.454.455-0.909h0.91l0.909-1.364h0.909v-0.455l1.364-.455,0.455-.909h0.909l0.455-.91,1.364-.454,0.909-1.365h0.91l0.454-.909h0.91l0.454-.909,1.364-.455,0.91-1.364h0.909l0.909-1.364h0.91l0.909-1.364h0.909l0.91-1.364h0.909l0.909-1.365h0.91l1.364-1.818,1.364-.455,0.454-.909h0.91q0.226-.456.454-0.91h0.455l0.455-.909h0.909l1.364-1.819h0.909l1.364-1.819h0.91l1.818-2.273h0.91l1.819-2.274h0.909l2.273-2.728h0.91l2.273-2.728h0.909l2.728-3.183h0.91l4.092-4.547h0.909l5.456-5.911c3.871-2.8,6.686-6.232,10-9.549,3.171-3.172,6.413-5.843,9.093-9.549l4.547-4.092,3.183-4.092q1.135-.911,2.273-1.819v-0.91l3.637-3.182v-0.91l2.728-2.273v-0.91L911,852.394v-0.91l2.274-1.818v-0.91l0.909-.455v-0.454l0.909-.455v-0.909l2.274-1.819v-0.91l1.819-1.364v-0.909l1.818-1.364v-0.91l1.364-.909v-0.909l1.819-1.364v-0.91l1.364-.909V833.3l1.364-.909v-0.91l1.364-.909v-0.909l1.364-.91V827.84l1.364-.909q0.226-.683.455-1.365l0.909-.454V824.2l0.909-.454v-0.91l1.364-.909v-0.91l0.91-.454v-0.91l1.364-.909v-0.91l0.909-.454v-0.91h0.455q0.227-.681.454-1.364l0.91-.454v-0.91l1.364-.909v-0.91l0.909-.454q0.228-.683.455-1.364h0.454V809.2l0.91-.455v-0.909l0.909-.455v-0.909l0.909-.455v-0.909l0.91-.455q0.226-.909.454-1.819l0.91-.454v-0.91l0.909-.454V800.1l0.909-.455v-0.909l0.91-.455q0.226-.909.454-1.818h0.455l0.455-1.365,0.909-.454v-0.91h0.455v-0.909l0.909-.455q0.228-.909.455-1.819l0.909-.454q0.228-.91.455-1.819l0.909-.455q0.228-.909.455-1.819l0.909-.454q0.455-1.365.91-2.729l0.909-.454v-0.91h0.455v-0.909l0.909-.455,0.909-2.728h0.455v-0.909l0.909-.455V775.1H964.2v-0.91h0.455v-0.909h0.454v-0.91l0.91-.454V771h0.454v-0.909h0.455v-0.91h0.455v-0.909h0.454q0.228-.909.455-1.819L969.2,766l3.183-7.276h0.455q0.226-.909.454-1.818h0.455q0.228-.911.455-1.819h0.454v-0.91h0.455v-0.909h0.455v-0.91h0.454V751.45h0.455l0.909-2.728h0.455q0.228-.909.455-1.819h0.454v-1.364h0.455V744.63h0.455v-0.91h0.454q0.456-1.363.91-2.728h0.454v-1.364h0.455v-0.91h0.455q0.226-.909.454-1.818H983.3v-1.364h0.455v-0.91h0.454v-0.909h0.455v-0.91h0.455v-1.364h0.454q0.228-.909.455-1.819h0.455V728.26h0.454v-0.909h0.455v-1.364h0.455q0.226-.909.454-1.819h0.455V722.8h0.455V721.9h0.455V720.53h0.454v-0.909h0.455q0.226-1.137.455-2.273h0.454v-1.365h0.455v-0.909h0.455q0.227-1.364.454-2.728H993.3v-0.91h0.455q0.226-1.364.454-2.728h0.455V707.8h0.455l0.909-4.092h0.455V702.8h0.454v-1.364h0.455v-1.364h0.455v-1.364H998.3v-1.364h0.455v-1.364c2.1-5.275,3.954-11.407,5.914-16.824v-1.819h0.45V675.97h0.46v-1.819c2.69-7.455,4.32-16.352,6.82-24.1v-2.274c1.24-3.84,1.95-8.792,3.18-12.731v-2.274c1.46-4.665,1.76-10.7,3.18-15.46q0.225-2.955.46-5.911c1.54-5.3,1.18-12.322,2.72-17.733v-4.092h0.46V585.03h0.45v-5.457h0.46v-6.366h0.45v-7.275h0.46V555.019c1.35-4.876.45-13.725,0.45-19.552,0-3.247.25-7.493-.45-10V514.551h-0.46V510l-0.45-9.094h-0.46q-0.45-7.275-.91-14.551-2.49-17.049-5-34.1c-1.04-3.4-1.65-8.008-2.73-11.368l-0.45-4.547h-0.45v-1.818h-0.46V432.25h-0.45v-1.819h-0.46v-1.819h-0.45v-2.273c-2.29-7.015-3.92-15.056-6.37-21.826V402.7h-0.45V401.33h-0.46v-1.818h-0.45v-1.365h-0.46v-1.364h-0.45v-1.364h-0.46v-1.364h-0.45v-1.819h-0.46v-1.364h-0.45v-1.364h-0.46v-1.364h-0.45V386.78h-0.455v-1.364h-0.454q-0.455-2.046-.91-4.092h-0.454v-0.91h-0.455V379.05h-0.455v-1.364h-0.454v-1.364h-0.455v-1.364h-0.455v-1.364h-0.454v-0.91h-0.455q-0.228-1.364-.455-2.728h-0.454v-0.909H993.3v-1.364h-0.455v-0.91h-0.454q-0.228-1.364-.455-2.728h-0.455v-0.909h-0.454v-1.365h-0.455v-0.909h-0.455q-0.226-1.137-.454-2.273h-0.455v-1.365h-0.455v-0.909H988.3v-1.364h-0.454q-0.228-.909-0.455-1.819h-0.455v-1.364H986.48q-0.228-.909-0.455-1.819H985.57v-1.364h-0.454q-0.228-.909-0.455-1.819h-0.455V345.4h-0.454v-0.909H983.3q-0.227-.909-0.455-1.819h-0.454V341.31h-0.455V340.4h-0.455l-0.909-2.728h-0.455v-1.364H979.66q-0.228-.909-0.455-1.819H978.75V333.58H978.3v-0.909h-0.455v-0.91h-0.455l-0.909-2.728h-0.455v-1.364h-0.454q-0.455-1.365-.91-2.728H974.2v-0.91h-0.455v-0.909h-0.455v-0.91H972.84V321.3h-0.455v-0.909H971.93v-0.91l-0.909-.454-0.909-2.729h-0.455v-0.909H969.2v-0.91h-0.454v-0.909h-0.455v-0.909h-0.455q-0.226-.91-0.454-1.819l-0.91-.455v-0.909H966.02v-0.91h-0.455v-0.909H965.11v-0.909h-0.454v-0.91l-0.91-.455v-0.909h-0.454V303.57h-0.455v-0.91h-0.455v-0.909l-0.909-.455-0.909-2.728-0.91-.455q-0.226-.909-0.454-1.819l-0.91-.454-0.909-2.728-0.909-.455q-0.228-.909-0.455-1.819l-0.909-.455v-0.909h-0.455v-0.909l-0.909-.455V287.2l-0.91-.454q-0.226-.909-0.455-1.819h-0.454l-0.455-1.364-0.909-.455q-0.228-.909-0.455-1.819l-0.909-.454v-0.91l-0.91-.454q-0.227-.683-0.454-1.365h-0.455q-0.227-.909-0.455-1.818l-0.909-.455v-0.909l-0.909-.455v-0.91H944.65q-0.226-.681-0.455-1.364l-0.909-.454v-0.91l-0.909-.454v-0.91h-0.455q-0.227-.683-0.455-1.364l-0.909-.455v-0.909l-1.364-.91V264.92h-0.455q-0.227-.683-0.454-1.364l-0.91-.455v-0.909l-1.364-.91v-0.909l-0.909-.455v-0.909l-1.364-.909v-0.91l-0.909-.455v-0.909l-0.91-.455q-0.226-.681-0.454-1.364L930.1,253.1v-0.91l-0.91-.454v-0.91l-1.364-.909v-0.909q-0.681-.456-1.364-0.91v-0.909l-1.818-1.364v-0.91l-0.91-.454q-0.227-.683-0.454-1.365-0.91-.681-1.819-1.364v-0.909l-1.364-.909V239l-0.909-.455v-0.454l-0.91-.455v-0.909q-0.909-.683-1.819-1.364v-0.91L915.551,234l-0.909-1.364h-0.455v-0.909l-2.273-1.819V229l-2.274-1.819v-0.909L906.912,224v-0.909l-3.182-2.729V219.45l-3.638-3.183v-0.909l-5-4.547V209.9l-2.728-2.273a67.838,67.838,0,0,1-7.275-8.185l-1.364-.909L881,195.351h-0.909l-2.274-2.728a72.088,72.088,0,0,0-8.638-7.73l-4.092-4.547-1.364-.455-3.183-3.638h-0.909q-1.365-1.59-2.728-3.183h-0.91l-2.273-2.728h-0.909q-0.91-1.136-1.819-2.273h-0.909L848.26,165.8h-0.91l-1.364-1.819h-0.909l-1.819-2.273h-0.909l-0.909-1.364h-0.91q-0.226-.454-0.454-0.91h-0.455q-0.226-.454-0.455-0.909h-0.909l-1.364-1.819h-0.909l-0.91-1.364h-0.909l-0.909-1.364h-0.91l-0.909-1.364h-0.909l-0.91-1.364h-0.909l-0.909-1.364h-0.91l-0.909-1.364-1.364-.455-0.455-.909h-0.909q-0.228-.456-0.455-0.91h-0.909l-0.909-1.364h-0.91l-0.454-.909h-0.91l-0.909-1.364h-0.909q-0.228-.456-0.455-0.91l-1.364-.455v-0.454h-0.91l-0.454-.91H812.8l-0.454-.909h-0.91l-0.909-1.364h-0.909q-0.228-.455-0.455-0.91l-1.364-.454v-0.455h-0.909l-0.455-.909-1.819-.455-0.454-.909h-0.91q-0.226-.456-0.454-0.91h-0.91l-0.454-.909h-0.91l-0.454-.91-1.819-.454v-0.455l-1.364-.455-0.455-.909-1.818-.455V127.6l-1.364-.454q-0.228-.454-0.455-0.91l-1.819-.454q-0.226-.456-0.454-0.91l-1.819-.454-0.455-.91-1.818-.455q-0.228-.454-0.455-0.909l-1.819-.455-0.454-.909-2.728-.91q-0.228-.455-0.455-0.909l-2.728-.909-0.455-.91h-0.909v-0.454h-0.91v-0.455H774.6v-0.455h-0.909l-0.455-.909H772.33v-0.455h-0.91v-0.455h-0.909v-0.454H769.6V113.05h-0.91V112.6h-0.909q-0.227-.454-0.455-0.909l-1.818-.455v-0.455H764.6v-0.454h-0.909v-0.455h-0.909v-0.455h-0.91v-0.454l-1.818-.455v-0.455l-1.819-.454v-0.455l-1.819-.455V106.23l-1.818-.455V105.32l-1.819-.455v-0.454H751.87v-0.455h-0.91V103.5h-0.909v-0.454h-0.909v-0.455h-0.91v-0.455l-1.818-.455v-0.454H745.5v-0.455H744.14v-0.455h-0.909V99.864h-0.91V99.409l-2.728-.91V98.045h-1.364V97.59H737.32V97.136l-1.819-.455V96.226h-1.364V95.771l-1.818-.455V94.862h-1.364V94.407l-1.819-.455V93.5h-1.364V93.043l-1.819-.455V92.134h-1.364V91.679H723.68V91.224l-2.273-.455V90.315h-1.364V89.86h-0.91V89.406h-1.364V88.951H716.86V88.5H715.5V88.042h-0.909V87.587l-2.274-.455V86.677h-1.364V86.223l-2.728-.455V85.313h-0.909V84.859l-2.728-.455V83.949h-0.91V83.494H702.31V83.04h-1.364V82.585h-1.364V82.13h-1.364V81.676h-1.364V81.221H695.49V80.766h-1.364V80.312h-1.364V79.857H691.4V79.4l-2.728-.455V78.493l-2.728-.455V77.583l-2.728-.455V76.674H681.4V76.219h-1.364V75.765h-1.364V75.31l-3.183-.455V74.4l-3.183-.455V73.491l-3.183-.455V72.582l-5-.909V71.218H662.3V70.763h-1.818V70.308h-1.819V69.853h-1.819c-6.837-2.333-15.22-3.313-22.279-5.456h-2.728c-2.072-.631-5.14-1.181-7.274-1.819h-2.728c-4.368-1.306-10.092-1.43-14.55-2.728H604.1V59.4h-3.637V58.941h-3.637V58.486h-4.092V58.031h-4.547V57.577h-4.547V57.122h-5.456V56.667H571.82V56.212h-8.184V55.758H550.45c-3.483-.968-17.438-0.979-20.915,0h-9.093l-12.276.455v0.455H501.8v0.455h-5.456c-5.021,1.441-11.874.85-16.822,2.273h-3.638c-5.451,1.595-12.386,1.584-17.732,3.183l-5.456.455c-2.073.636-5.147,1.161-7.275,1.819h-2.273v0.455h-1.819v0.455h-2.273v0.455h-2.273v0.455h-1.819v0.455l-4.092.455v0.455H428.6c-6.08,1.982-13.208,3.338-19.1,5.456l-8.184,1.819c-5.871,2.138-12.462,4.082-18.187,6.366h-1.364V82.13H380.4v0.455h-1.364V83.04h-1.364v0.455h-1.364v0.455H375.4V84.4l-2.728.455v0.455h-0.909v0.455l-2.728.455v0.455h-1.364v0.455h-0.91v0.455H365.4v0.455H364.49V88.5l-2.274.455v0.455h-1.364V89.86h-0.909v0.455h-1.364V90.77H357.67v0.455h-1.364v0.455H355.4v0.455h-1.364v0.455l-1.818.455V93.5H350.85v0.455l-1.819.455v0.455h-1.364v0.455l-1.819.455v0.455h-1.364v0.455h-0.909v0.455l-1.819.455v0.455h-1.364V98.5h-0.909v0.455h-0.909v0.455l-2.728.909v0.455h-1.364v0.455h-0.91v0.454l-1.818.455v0.455l-1.819.455V103.5l-1.819.455v0.455h-0.909v0.454H326.3v0.455h-0.909v0.455h-0.909v0.455h-0.91v0.454l-1.818.455v0.455l-1.819.454V108.5l-1.819.455v0.454H317.2v0.455H316.3v0.455h-0.91v0.454h-0.909v0.455l-1.819.455-0.454.909h-0.91v0.455h-0.909v0.455h-0.909v0.454h-0.91v0.455l-1.818.455q-0.228.454-.455,0.909h-0.909v0.455h-0.91v0.455h-0.909v0.454h-0.909l-0.455.91-2.728.909-0.455.909-2.728.91-0.454.909h-0.91v0.455h-0.909l-0.455.909-1.819.455q-0.227.455-.454,0.91l-1.819.454-0.455.91h-0.909v0.454H287.2v0.455l-1.364.455-0.455.909-1.819.455v0.455l-1.364.454-0.454.91-1.819.454-0.455.91h-0.909l-0.455.909h-0.909l-0.455.91h-0.909l-0.455.909-1.818.455v0.454l-1.364.455-0.455.909h-0.909l-0.455.91h-0.909l-0.91,1.364h-0.909l-0.455.909-1.364.455v0.455h-0.909l-0.455.909h-0.909l-0.455.91h-0.909l-0.909,1.364h-0.91l-0.454.909h-0.91l-0.909,1.364h-0.91q-0.226.454-.454,0.91h-0.91l-0.454.909-1.364.455-0.91,1.364h-0.909l-0.909,1.364h-0.91l-0.909,1.364h-0.909l-0.91,1.364H246.73l-0.909,1.364h-0.91L244,156.7h-0.909l-0.455.91h-0.455l-0.454.909h-0.91l-1.364,1.819h-0.909l-0.909,1.364h-0.91l-1.818,2.273H234q-0.681.911-1.364,1.819h-0.909l-1.819,2.274H229l-1.819,2.273H226.27l-0.909,1.364-1.365.91v0.454h-0.909l-2.728,3.183H219.45l-1.364,1.819-1.819,1.364v0.455h-0.909l-4.547,5a72.1,72.1,0,0,0-8.639,7.73l-2.273,2.728H198.99q-0.228.454-.455,0.909l-3.183,2.728v0.91H194.9q-0.682.909-1.364,1.819c-7.095,7.119-14.5,14.035-20.461,22.28l-2.728,2.274v0.909l-0.909.455v0.454l-1.364.91v0.909l-2.273,1.819v0.909l-2.274,1.819v0.91l-1.818,1.364v0.909L159.888,239v0.91l-1.364.909v0.909l-1.819,1.364V244l-1.364.909v0.91l-1.819,1.364V248.1l-1.364.91q-0.226.681-.454,1.364l-0.91.454v0.91l-0.909.454v0.91l-1.364.909v0.91l-1.364.909v0.909l-0.909.455v0.91l-1.364.909v0.909l-0.91.455v0.909q-0.681.456-1.364,0.91V263.1h-0.454q-0.228.683-.455,1.364l-0.909.455v0.909l-1.364.91v0.909l-0.91.455q-0.227.682-.454,1.364h-0.455v0.91l-0.909.454v0.91l-0.91.454v0.91l-0.909.454v0.91l-0.909.455v0.909l-0.91.455q-0.227.909-.454,1.818l-0.91.455v0.91l-0.909.454v0.91l-0.909.454q-0.228.911-.455,1.819l-0.909.455v0.909l-0.91.455q-0.226.909-.454,1.819H126.7q-0.228.681-.455,1.364l-0.909.455q-0.228.909-.455,1.818l-0.909.455q-0.228.909-.455,1.819l-0.909.455L121.7,295.84l-0.91.454v0.91h-0.454v0.909l-0.91.455v0.909h-0.455v0.91h-0.454V301.3h-0.455v0.91l-0.909.454q-0.454,1.365-.91,2.728l-0.909.455-0.909,2.728h-0.455v0.91h-0.455v0.909l-0.909.455v0.909h-0.455v0.91h-0.454v0.909h-0.455v0.909h-0.455v0.91h-0.454V316.3h-0.455v0.91h-0.455v0.909h-0.454v0.91l-0.91.454-0.909,2.728h-0.455v0.91h-0.454v0.909h-0.455l-0.909,2.728h-0.455v1.365h-0.455l-0.909,2.728H102.6v0.909h-0.454v0.91H101.69v0.909h-0.455v0.909h-0.454v0.91h-0.455v0.909H99.871v1.364H99.417v0.91H98.962l-0.909,2.728H97.6v1.364H97.143v0.909H96.689L96.234,345.4H95.779v1.364H95.325l-0.455,1.819H94.415v1.364H93.961l-0.455,1.819H93.051v1.364H92.6l-0.455,1.819H91.687v1.364H91.233v0.909H90.778v1.365H90.323V359.5H89.869l-0.455,2.273H88.959v1.365H88.5v0.909H88.05L87.6,366.773H87.141v0.91H86.686v1.364H86.231v0.909H85.777l-0.909,4.092H84.413v0.91H83.958l-0.909,4.092H82.594v0.909H82.139v1.365H81.684v1.364H81.23v1.364H80.775v1.364H80.32v1.364H79.866v1.364H79.411v1.364H78.957v1.364H78.5v1.364H78.047v1.819H77.592v1.364H77.138v1.364H76.683v1.364H76.228v1.365H75.774v1.818H75.319V402.7H74.864v1.818c-2.452,6.765-4.1,14.8-6.365,21.826L67.59,432.25H67.135l-1.364,8.639c-1.6,4.958-2.11,11.316-3.637,16.37l-0.455,5.911c-0.726,2.463-1.1,6.173-1.819,8.639v3.638A43.248,43.248,0,0,0,58.5,485.45ZM568.182,858.305c-0.6-13.441-9.2-21.685-19.1-25.918h-1.364v-0.455H545.9v-0.455h-3.183v-0.454h-2.728v-0.455H524.079v-0.455h-6.82s-0.02-.379-0.909-0.454H511.8V829.2h-4.092v-0.455h-4.092l-24.1-4.092V824.2h-2.274v-0.454H475.43v-0.455h-2.274v-0.455l-5.456-.909v-0.455h-1.819v-0.455l-5-.909v-0.455h-1.364V819.2h-1.364v-0.455h-1.819v-0.455h-1.364v-0.455h-1.818v-0.454h-1.364v-0.455h-1.364v-0.455h-1.364v-0.454H447.7v-0.455h-1.364v-0.455l-2.728-.454V814.2h-0.91v-0.455l-4.092-.909V812.38h-0.909v-0.455l-2.728-.454v-0.455h-0.909v-0.455h-1.364v-0.454h-0.91v-0.455h-1.364V809.2h-0.909v-0.455h-1.364v-0.454l-1.819-.455v-0.455h-1.364v-0.454h-0.909v-0.455l-1.819-.455V805.56h-1.364v-0.455H419.96V804.65l-2.728-.909v-0.455h-1.364v-0.455h-0.91v-0.454l-1.818-.455v-0.455h-0.91v-0.454h-0.909v-0.455h-0.909V800.1H409.5v-0.455h-0.909v-0.454h-0.909v-0.455h-0.91v-0.455h-0.909V797.83h-0.909v-0.455h-0.91l-0.454-.909-1.819-.455v-0.455h-0.909V795.1h-0.91v-0.454h-0.909v-0.455h-0.909q-0.228-.455-0.455-0.909l-2.728-.91-0.455-.909-1.819-.455-0.454-.909-1.819-.455q-0.227-.455-0.455-0.909l-1.818-.455-0.455-.909-1.819-.455-0.454-.91H384.5l-0.454-.909-1.364-.455v-0.454l-1.819-.455v-0.455l-1.364-.455-0.455-.909H378.13l-0.455-.909h-0.909l-0.909-1.364h-0.91q-0.226-.456-0.454-0.91h-0.91v-0.455l-1.364-.454-0.454-.91h-0.91L370.4,776l-1.364-.455q-0.456-.681-0.91-1.364h-0.909l-0.455-.909h-0.909l-0.455-.91-1.364-.454q-0.681-.911-1.364-1.819h-0.909q-0.454-.682-0.91-1.364h-0.909l-1.364-1.819H357.67l-1.364-1.819H355.4l-1.818-2.273h-0.91l-0.909-1.364H351.3q-0.226-.456-0.454-0.91h-0.91l-2.728-3.183c-4.965-3.594-8.915-8-13.185-12.277l-7.73-7.275V736.9q-2.044-1.819-4.092-3.638v-0.909l-3.182-2.729v-0.909l-2.728-2.273v-0.91l-2.274-1.819V722.8L312.2,721.44v-0.91l-0.91-.454v-0.455l-0.909-.455v-0.909l-1.364-.909v-0.91l-1.364-.909v-0.91l-1.364-.909V712.8l-1.364-.91q-0.228-.681-0.455-1.364l-0.909-.455v-0.909l-0.909-.455V707.8l-1.364-.91V705.98h-0.455l-0.455-1.364-0.909-.455v-0.909l-1.364-.91v-0.909l-0.909-.455q-0.228-.681-0.455-1.364h-0.455q-0.226-.909-0.454-1.819l-0.91-.454v-0.91l-0.909-.454v-0.91l-0.91-.454q-0.226-.911-0.454-1.819H292.2q-0.226-.682-0.455-1.364l-0.909-.455q-0.227-.909-0.455-1.819l-0.909-.455q-0.227-.909-0.455-1.818l-0.909-.455L287.2,683.7l-0.91-.455v-0.909h-0.454v-0.91h-0.455v-0.909h-0.455v-0.91l-0.909-.454-3.183-7.276-0.909-.454q-0.228-.909-0.455-1.819h-0.454q-0.228-.909-0.455-1.819H278.1v-1.364h-0.454q-0.228-.909-0.455-1.819h-0.455v-0.909h-0.454v-0.91h-0.455l-0.909-2.728h-0.455v-1.364H274.01v-0.909h-0.454v-0.91H273.1v-0.909h-0.455V654.6h-0.454v-0.91h-0.455v-1.364h-0.455q-0.227-.909-0.454-1.819h-0.455v-1.364h-0.455v-0.909h-0.454v-1.364h-0.455V645.96h-0.455V644.6H268.1v-0.909h-0.455l-0.909-4.092h-0.455v-0.91h-0.455l-0.909-4.092h-0.455v-1.364h-0.454v-1.364h-0.455V630.5H263.1v-1.364h-0.454v-1.365h-0.455v-1.364h-0.455v-1.364H261.28v-1.819h-0.455V621.86H260.37v-1.818h-0.454v-1.365h-0.455q-0.228-1.59-.455-3.182h-0.455v-1.819H258.1q-0.228-1.82-.455-3.638h-0.455q-0.226-1.818-.454-3.637h-0.455v-2.274c-1.321-4.1-1.912-9.38-3.183-13.641q-0.227-2.728-.454-5.456h-0.455v-3.183h-0.455v-3.183h-0.454v-3.638h-0.455v-4.092h-0.455v-4.547h-0.454v-5.911h-0.455c-0.706-2.491.171-6.429-.455-8.64v-15h-0.454v-3.183c-3.582-11.66-12.335-21.671-26.826-22.28q0.682-7.047,1.364-14.1h0.455v-3.637H224v-2.729h0.455v-3.182h0.455V485h0.455v-2.273h0.454q0.228-2.5.455-5,2.727-11.594,5.456-23.19h0.455q0.681-3.181,1.364-6.365H234q0.454-2.274.91-4.547h0.454v-1.365h0.455v-1.364h0.455v-1.364h0.454v-1.364h0.455V436.8h0.455l0.909-4.092H239V431.8h0.454q0.228-1.363.455-2.728h0.455v-0.909h0.454q0.228-1.365.455-2.728h0.455v-0.91h0.454v-1.364h0.455v-0.909h0.455q0.227-1.137.454-2.274H244v-1.364h0.455V417.7h0.454v-1.365h0.455q0.228-.909.455-1.818h0.454v-1.364h0.455q0.228-.911.455-1.819h0.454V409.97h0.455v-0.91h0.455l0.909-2.728h0.455v-1.364h0.454v-0.909h0.455q0.228-.911.455-1.819h0.454v-0.91h0.455v-0.909h0.455v-0.909H253.1V398.6h0.455v-0.909h0.455q0.227-.909.454-1.819h0.455q0.228-.909.455-1.819h0.454v-0.909h0.455v-0.91h0.455v-0.909h0.454v-0.909h0.455q0.228-.911.455-1.819l0.909-.455v-0.909h0.455v-0.91h0.455v-0.909h0.454v-0.91h0.455V383.6l0.909-.455q0.454-1.363.91-2.728l0.909-.455q0.226-.909.455-1.818l0.909-.455q0.227-.909.455-1.819l0.909-.455q0.227-.909.455-1.818l0.909-.455q0.226-.909.455-1.819l0.909-.455v-0.909l0.909-.455q0.228-.909.455-1.818l0.909-.455v-0.91l0.91-.454v-0.91l0.909-.454v-0.91h0.455q0.227-.681.454-1.364l0.91-.455v-0.909h0.454l0.455-1.364,0.909-.455v-0.909q0.682-.454,1.364-0.91v-0.909h0.455l0.455-1.364,0.909-.455v-0.909l1.364-.91v-0.909l1.364-.909v-0.91l1.364-.909v-0.91l1.364-.909v-0.909l1.364-.91v-0.909l1.364-.91v-0.909l1.819-1.364V340.4l1.818-1.364v-0.909l2.274-1.819V335.4l2.273-1.819v-0.909l2.728-2.274v-0.909l3.638-3.183V325.4l5.91-5.456V319.03q1.82-1.591,3.638-3.183,3.636-3.865,7.274-7.73h0.91l5-5.457H326.3l3.183-3.637h0.91q1.135-1.365,2.273-2.729h0.909l1.819-2.273H336.3l1.819-2.274h0.909l1.364-1.818h0.91q0.681-.91,1.364-1.819h0.909l0.455-.91,1.364-.454,1.364-1.819h0.909l0.909-1.364h0.91L350.4,282.2H351.3q0.228-.454.455-0.91h0.909l0.91-1.364h0.909l0.455-.909h0.909l0.909-1.364h0.91l0.454-.91,1.364-.454v-0.455h0.91l0.454-.909h0.91q0.227-.456.454-0.91h0.91q0.226-.454.455-0.909h0.909l0.455-.91h0.909q0.227-.454.455-0.909h0.909q0.227-.454.455-0.909h0.909q0.226-.456.455-0.91l1.818-.455v-0.454l1.364-.455,0.455-.909,1.819-.455q0.227-.454.454-0.91l1.819-.454,0.455-.91,2.728-.909,0.454-.909,2.728-.91,0.455-.909H384.5v-0.455h0.91v-0.455h0.909v-0.454h0.909q0.228-.454.455-0.91l1.819-.454v-0.455h0.909V257.19h0.909v-0.455h0.91v-0.454h0.909v-0.455l1.819-.455v-0.454l1.818-.455v-0.455l1.819-.454V253.1l1.819-.455v-0.455h0.909v-0.454h0.91v-0.455h0.909v-0.455h0.909V250.37l1.819-.455V249.46h0.909v-0.454h1.364v-0.455h0.91V248.1l1.818-.455v-0.454h1.364v-0.455l1.819-.455v-0.454h1.364v-0.455l1.819-.455v-0.454H418.6V244h0.909v-0.455h1.364v-0.455h0.909V242.64h1.364v-0.455h0.91V241.73h1.364v-0.454h0.909v-0.455l2.728-.455v-0.454h0.909v-0.455h1.364V239h1.365v-0.455h1.364v-0.454h1.364v-0.455h1.364v-0.455h1.364v-0.454h1.364v-0.455h1.364v-0.455h1.364v-0.454H443.6V234.91l2.728-.455V234h1.818v-0.454h1.364v-0.455h1.364v-0.455l5-.909v-0.455H457.7v-0.454l3.638-.455c4.869-1.657,10.851-2.512,15.913-4.092l5-.455v-0.455h2.273v-0.455h2.728v-0.454h2.728V224h3.183v-0.455h3.182v-0.454h3.638v-0.455h3.637v-0.455h4.092v-0.454h5v-0.455l15.458-.455c3.932-1.091,10.275-.453,15-0.455,2.844,0,6.512-.145,8.638.455,2.624,0.741,6.749-.209,9.094.455h6.365v0.455h5c4.371,1.26,10.256,1.019,14.549,2.273h3.183c4.637,1.381,10.476,1.763,15,3.183h2.273c4.117,1.336,9.149,2.262,13.186,3.638l3.637,0.454v0.455l5,0.909v0.455L633.655,234v0.455h1.364v0.455h1.364v0.455h1.364v0.454h1.364v0.455h1.364v0.455h1.364v0.454H643.2v0.455h1.364v0.455h1.364v0.454h1.364V239h1.364v0.455h1.364c8.564,3.744,17.894,7.063,25.917,11.367l1.818,0.455v0.455h0.91v0.454h0.909v0.455h0.909V253.1h0.91v0.455h0.909v0.454h0.909v0.455c0.564,0.311,1.993.409,2.274,0.909v1.364h-0.455q-0.228,1.365-.455,2.729h-0.454v1.364c-1.056,2.84-1.843,6.56-2.728,9.549v2.728h-0.455v2.728h-0.455v3.638h-0.454v5.911h-0.455c-0.59,2.124.027,10.3,0.455,11.822q0.226,4.773.454,9.549h0.455v2.728H681.4v2.728h0.454v2.273q2.274,7.729,4.547,15.46h0.455v0.91h0.454v1.364h0.455v0.909h0.455v1.364h0.454q0.454,1.365.91,2.729h0.454v0.909h0.455v0.909h0.455v0.91H691.4v0.909h0.455v0.91h0.455v0.909h0.454v0.909h0.455v0.91h0.455V345.4l0.909,0.455q0.228,0.909.455,1.819l0.909,0.454q0.228,0.911.455,1.819h0.454q0.228,0.682.455,1.364l0.909,0.455v0.909l0.91,0.455v0.909q0.681,0.456,1.364.91v0.909l0.909,0.455v0.909l1.819,1.365V359.5l1.818,1.364v0.909l2.274,1.819,0.909,1.364h0.455v0.91l3.637,3.183,1.819,2.273h0.909l3.183,3.638h0.909q0.682,0.909,1.364,1.819h0.91l0.454,0.909h0.455q0.226,0.454.455,0.909h0.909q0.228,0.454.455,0.91h0.909l0.909,1.364h0.91l0.454,0.909,1.364,0.455v0.455h0.91l0.454,0.909,1.819,0.455,0.455,0.909,1.818,0.455q0.228,0.454.455,0.909H735.5v0.455h0.91v0.455h0.909v0.454h0.909q0.228,0.454.455,0.91l2.273,0.454v0.455h0.91v0.455h0.909v0.455l2.728,0.909v0.455h1.364v0.454h0.91v0.455l2.273,0.455V393.6h1.364v0.455h1.364v0.455h1.364v0.455h1.364v0.454h1.364v0.455h1.364v0.455h1.819v0.454h1.818v0.455h1.819v0.455h1.819v0.454h2.273V398.6h2.728v0.455h2.728v0.455l9.548,0.454c1.517,0.423,9.706,1.048,11.822.455v-0.455h5.91v-0.454h3.638v-0.455h2.728V398.6h2.728l15-4.092,7.729,15.46v1.364H832.8q0.228,0.909.455,1.819h0.454v1.364h0.455q0.228,0.909.455,1.818h0.454V417.7h0.455v0.909h0.455v1.364h0.454v0.91h0.455q0.228,1.136.455,2.273H837.8v1.364h0.455v0.91h0.455q0.227,1.363.454,2.728h0.455v0.909h0.455q0.226,1.363.454,2.728h0.455v0.91h0.455v1.364h0.454v1.364h0.455V436.8H842.8v1.364h0.454v1.364c3.137,7.864,5.039,17.128,7.73,25.464v2.273c1.239,3.84,1.981,8.78,3.183,12.732v2.728h0.454V485h0.455v2.729h0.455v3.182h0.454v2.729h0.455q0.227,3.41.455,6.82h0.454v4.093h0.455v4.546h0.455q0.226,5.911.454,11.823c0.82,2.937-.379,7.9.455,10.913h0.455v4.547c0,3.78.4,8.8-.455,11.822v10.913h-0.455v6.365c-1.49,5.182-.8,12.225-2.273,17.279v3.183c-1.461,4.939-1.726,11.137-3.183,15.915v2.728h-0.454q-0.228,2.046-.455,4.092H851.9q-0.227,2.046-.454,4.092h-0.455v1.819h-0.455V616.4h-0.454v1.819h-0.455q-0.455,2.727-.91,5.456H848.26q-0.683,3.183-1.364,6.366h-0.455q-0.227,1.592-.455,3.183h-0.454v1.364h-0.455v1.364h-0.455v1.364h-0.454v1.364h-0.455v1.364h-0.455v1.364H842.8v1.365h-0.455q-0.227,1.363-.455,2.728H841.44q-0.455,2.046-.91,4.092h-0.454v0.909h-0.455v1.365h-0.455v1.364h-0.454v0.909h-0.455v1.364H837.8v0.91h-0.454q-0.228,1.135-.455,2.273h-0.455v1.364h-0.454v0.91h-0.455v1.364h-0.455v0.909H834.62V664.6h-0.455q-0.228.909-.455,1.819h-0.454v1.364H832.8v0.91h-0.455q-0.226.909-.454,1.818h-0.455v1.364h-0.455v0.91h-0.454V673.7h-0.455v0.91h-0.455l-0.909,2.728h-0.455V678.7H827.8l-0.91,2.728h-0.454v0.91h-0.455v0.909h-0.455v0.909h-0.454v0.91h-0.455v0.909h-0.455v0.91h-0.454v0.909l-0.91.455v0.909h-0.454v0.909h-0.455v0.91h-0.455v0.909H820.98q-0.228.909-.455,1.819l-0.909.455v0.909h-0.455v0.91h-0.455v0.909h-0.454V697.8l-0.91.455-0.909,2.728-0.909.455q-0.228.909-.455,1.819l-0.91.455q-0.226.909-.454,1.818l-0.91.455q-0.226.909-.454,1.819l-0.91.455v0.909l-0.909.455v0.909l-0.909.455q-0.228.909-.455,1.819l-0.909.454v0.91h-0.455q-0.226.681-.455,1.364l-0.909.454v0.91l-0.909.455v0.909l-0.91.455v0.909h-0.454q-0.228.683-.455,1.364l-0.909.455v0.909l-1.364.91v0.909l-0.91.455v0.909l-1.364.91v0.909l-0.909.455v0.909l-1.364.909v0.91l-1.364.909v0.91l-1.364.909v0.909l-1.819,1.365v0.909l-1.364.909v0.91l-1.818,1.364v0.909l-1.819,1.364v0.91q-1.137.909-2.273,1.819v0.909l-2.728,2.274v0.909l-3.183,2.728v0.909L775.058,756c-3.163,4.369-7.159,7.615-10.912,11.368-4.132,4.13-7.921,8.343-12.731,11.822l-2.728,3.183h-0.909q-0.228.454-.455,0.909h-0.455l-0.909,1.364h-0.91l-1.818,2.274h-0.91L740.5,789.19h-0.91q-0.681.91-1.364,1.819H737.32q-0.227.455-.455,0.909l-1.364.455-1.364,1.819h-0.909l-0.909,1.364h-0.91L730.5,796.92h-0.909q-0.228.454-.455,0.91h-0.909l-0.455.909-1.364.455-0.909,1.364h-0.91l-0.454.909h-0.91v0.455l-1.364.455-0.454.909H720.5l-0.909,1.364h-0.909q-0.228.454-.455,0.91h-0.909q-0.228.455-.455,0.909h-0.909q-0.228.455-.455,0.909h-0.909q-0.228.454-.455,0.91l-1.819.454q-0.226.456-.454,0.91h-0.91q-0.226.455-.455,0.909h-0.909q-0.227.454-.455,0.91l-1.818.454q-0.228.455-.455,0.91l-1.819.454q-0.227.456-.454,0.91l-1.819.455q-0.226.455-.455,0.909l-1.818.455-0.455.909-2.728.909-0.455.91h-0.909V819.2h-0.909v0.454h-0.91v0.455h-0.909l-0.455.909-1.818.455v0.455l-1.819.454v0.455h-0.909v0.455h-0.91v0.455H686.4V824.2h-0.909v0.455l-1.819.455-0.455.909-5,1.819V828.3H677.3v0.454h-0.91V829.2h-0.909v0.455l-2.728.909v0.455h-1.364v0.454l-1.819.455v0.455H668.21v0.455H667.3V833.3l-1.819.455v0.455h-1.364v0.454h-0.909v0.455l-2.274.455v0.455h-1.364v0.454l-1.818.455v0.455l-2.728.454V838.3h-0.91v0.455h-1.364v0.454h-0.909v0.455l-4.092.909v0.455h-0.909v0.455l-2.728.455v0.454h-1.364v0.455h-1.364V843.3H640.02v0.454h-1.364v0.455h-1.364v0.455h-1.364v0.455H634.11C614.964,852.059,591.68,855.92,568.182,858.305ZM528.171,366.318c-1.3,1.058-3.989-.1-5.91.455L506.8,369.047V369.5l-4.547.455v0.455h-1.819v0.454h-1.818v0.455H496.8v0.455H494.98v0.455h-1.818v0.454H491.8v0.455h-1.819v0.455l-5.911,1.364v0.454h-0.909v0.455H481.8v0.455l-2.728.455v0.454h-0.909v0.455l-2.728.455V378.6h-0.91v0.455h-1.364v0.455h-0.909v0.454l-2.273.455v0.455l-2.729.909v0.455h-0.909v0.455h-1.364v0.454l-2.728.91v0.454h-0.909v0.455l-2.728.91-0.455.909h-0.909v0.455h-0.91v0.454h-0.909v0.455h-0.909V388.6h-0.91l-0.454.909-1.819.455-0.455.909-1.818.455-0.455.909-1.819.455-0.454.909h-0.91q-0.227.456-.454,0.91h-0.91v0.455l-1.364.454-0.454.91h-0.91l-0.454.909h-0.91l-0.909,1.364h-0.909q-0.228.454-.455,0.91h-0.909q-0.456.681-.91,1.364h-0.909l-0.909,1.364h-0.91l-1.364,1.819h-0.909l-1.364,1.818H428.6q-1.136,1.365-2.273,2.729h-0.909l-3.638,4.092h-0.909l-4.092,4.547-4.547,4.092v0.91h-0.454l-0.91,1.364-2.728,2.273v0.91l-2.273,1.818v0.91q-1.137.909-2.273,1.819v0.909l-1.364.909v0.91l-1.819,1.364v0.909l-0.909.455v0.909l-1.364.91v0.909l-0.91.455v0.909l-1.364.91v0.909l-0.909.455-0.455,1.364h-0.455v0.909l-0.909.455q-0.226.909-.455,1.819h-0.454l-0.455,1.364-0.909.455v0.909h-0.455v0.91l-0.909.454q-0.454,1.365-.91,2.728l-0.909.455v0.909h-0.455v0.91h-0.454v0.909h-0.455v0.91h-0.455v0.909h-0.454v0.91H384.95q-0.228.909-.455,1.818h-0.454v0.91h-0.455v0.909h-0.455v0.91h-0.454V465.9h-0.455v0.909h-0.455q-0.227.91-.454,1.819h-0.455v0.91H380.4V470.9h-0.454q-0.228.909-.455,1.818h-0.455v1.365h-0.454v0.909H378.13v1.364h-0.455v0.909h-0.454q-2.955,9.094-5.911,18.188v1.819h-0.455v1.819H370.4v2.274h-0.455v1.818h-0.455v2.274h-0.454v2.273h-0.455v2.729c-0.772,2.616-1.041,6.379-1.819,9.094V524.1h-0.454v5.911c-0.94,3.4-.962,16.617,0,20.007v4.547l0.909,9.548h0.455V567.3h0.454v2.728h0.455V572.3h0.455v2.728h0.454q0.228,2.046.455,4.092H370.4v1.819h0.454v1.819h0.455v1.819h0.455v1.819h0.454v1.364h0.455v1.819h0.455v1.364h0.454V592.3h0.455v1.364h0.455v1.819h0.454V596.4H375.4v1.364h0.455v1.364h0.454v1.364h0.455v1.365h0.455v0.909h0.454v1.364h0.455q0.228,1.137.455,2.274h0.454v0.909h0.455v1.364h0.455q0.227,0.909.454,1.819h0.455V611.4h0.455v1.364h0.454v0.91h0.455c0.9,1.664-.185,1.945,2.273,2.273V615.5l4.547-.91V614.13h1.819c6.695-2.166,19.257-2.745,26.371-.454h2.273l10.912,3.637v0.455l2.728,0.909v0.455h0.91v0.455l1.818,0.455,0.455,0.909,1.819,0.455,0.454,0.909h0.91l0.454,0.909h0.91q0.226,0.456.454,0.91l1.364,0.455,0.91,1.364h0.909l2.273,2.728h0.91l0.454,0.909,2.728,2.274v0.909l2.728,2.274v0.909l1.364,0.909v0.91l1.364,0.909v0.91l0.91,0.454q0.227,0.683.454,1.364h0.455q0.228,0.91.455,1.819l0.909,0.455,0.909,2.728h0.455l0.909,2.728h0.455v1.364H462.7v0.91h0.454v1.364h0.455v0.909h0.455v1.365h0.454v1.818h0.455v1.364h0.455v1.819h0.454v2.274c2.216,7.206,1.833,19.607-.454,26.372v1.819h-0.455v1.364h-0.455q-0.227,1.591-.454,3.183h-0.455v0.91h-0.455c-0.245.594,0.209,0.186,0.455,0.454,1.145,1.239,1.692.688,3.183,1.364v0.455H467.7v0.455l2.728,0.909v0.455h1.364v0.455h0.91v0.454h1.364v0.455h0.909v0.455h1.364v0.454h0.909V702.8h1.364v0.455h0.91v0.455l2.728,0.454v0.455h1.364v0.455h1.364v0.454h1.364v0.455h1.364v0.455h1.364v0.454l8.638,1.819v0.455h1.819v0.455h1.819v0.454l4.092,0.455v0.455l5,0.454v0.455h2.728v0.455h3.183V712.8h4.092v0.454l11.821,0.455v0.455h15V713.71h4.546l7.275-.455V712.8l7.275-.455v-0.455h2.728v-0.455h2.273v-0.454h2.728v-0.455l4.092-.455v-0.454H580v-0.455h1.819v-0.455h1.818v-0.454h1.819V707.8h1.819v-0.455h1.364v-0.455h1.818v-0.454h1.364V705.98h1.364v-0.455h1.364v-0.454h1.364v-0.455h1.364v-0.455l2.728-.454v-0.455h0.91V702.8h1.364v-0.455h0.909v-0.454h1.364v-0.455h0.909v-0.455h1.365v-0.454h0.909v-0.455H609.1v-0.455l2.728-.909V698.25h0.909V697.8H614.1v-0.454l2.728-.91v-0.454h0.91v-0.455h0.909v-0.455l2.728-.909,0.455-.91h0.909v-0.454h0.909v-0.455h0.91v-0.455h0.909l0.455-.909,2.728-.91,0.454-.909,1.819-.455,0.455-.909h0.909l0.455-.909h0.909q0.228-.456.455-0.91h0.909l0.455-.909,1.818-.455,0.91-1.364h0.909l0.455-.909h0.909l0.91-1.365h0.909q0.227-.455.455-0.909h0.909l0.909-1.364h0.91l1.364-1.819h0.909l1.364-1.819h0.909l1.819-2.273h0.909l2.274-2.728h0.909l4.092-4.547c3.316-3.318,6.748-6.131,9.548-10l3.183-2.728v-0.909l2.273-1.819v-0.91l1.819-1.364v-0.909l1.364-.909v-0.91l1.364-.909v-0.91l1.364-.909v-0.91l0.909-.454v-0.91l1.364-.909V638.23l0.91-.455q0.226-.682.454-1.364h0.455V635.5l0.909-.454q0.228-.91.455-1.819h0.455q0.227-.682.454-1.364l0.91-.455V630.5h0.454v-0.91l0.91-.454q0.226-.91.454-1.819l0.91-.455v-0.909H691.4v-0.91h0.455v-0.909h0.455v-0.91l0.909-.454v-0.91h0.455v-0.909h0.454v-0.909h0.455v-0.91h0.455v-0.909h0.454v-0.91h0.455V616.4H696.4V615.5h0.454q0.455-1.365.91-2.729h0.454q0.228-1.135.455-2.273h0.455q0.226-.909.454-1.819h0.455V607.31h0.455V606.4h0.454q0.228-1.137.455-2.274h0.455v-1.364h0.454v-0.909h0.455l0.909-4.093h0.455V596.4h0.455v-0.909h0.454v-1.819h0.455V592.3h0.455v-1.364H706.4v-1.364h0.455q0.228-1.591.455-3.183h0.454v-1.819h0.455v-1.819h0.455v-1.819h0.454v-1.819h0.455l0.909-6.82h0.455q0.454-4.092.91-8.185h0.454q0.228-3.864.455-7.73h0.455q0.227-7.956.454-15.914-0.227-8.184-.454-16.369h-0.455v-4.547c-0.772-2.646-1.039-6.5-1.819-9.094V507.73h-0.455v-2.273H710.04v-2.274h-0.455v-1.818H709.13v-2.274h-0.454v-1.819h-0.455v-1.819q-2.955-9.093-5.911-18.188h-0.454v-0.909H701.4v-1.364h-0.455v-0.909h-0.454v-1.365h-0.455q-0.227-.909-0.455-1.818h-0.454v-1.364h-0.455l-0.909-2.729h-0.455V465.9h-0.455v-0.909H696.4v-0.91h-0.455V463.17H695.49q-0.226-1.137-.454-2.274l-0.91-.454v-0.91h-0.454v-0.909h-0.455v-0.91h-0.455V456.8h-0.454v-0.91h-0.455v-0.909l-0.909-.455q-0.455-1.363-.91-2.728l-0.909-.454q-0.228-.911-0.455-1.819h-0.454q-0.228-.683-0.455-1.364l-0.909-.455q-0.228-.909-0.455-1.819h-0.455q-0.226-.683-0.454-1.364l-0.91-.455v-0.909l-0.909-.455V441.8l-1.364-.91V439.98l-0.909-.455v-0.909q-0.682-.454-1.364-0.91V436.8q-0.456-.226-0.91-0.455v-0.909l-1.818-1.364v-0.91l-1.364-.909v-0.909l-2.274-1.819v-0.91l-2.273-1.818v-0.91l-4.092-3.637v-0.91l-4.092-3.637-4.547-5h-0.909l-0.455-.909h-0.455q-1.364-1.591-2.728-3.183h-0.909q-1.137-1.365-2.273-2.729h-0.91l-1.364-1.818H647.75l-1.364-1.819h-0.909l-0.91-1.364h-0.909l-0.909-1.364h-0.91q-0.227-.456-0.454-0.91h-0.91l-0.909-1.364h-0.91l-0.454-.909-1.364-.455v-0.455h-0.91l-0.454-.909h-0.91q-0.226-.454-0.454-0.91H633.2l-0.454-.909h-0.91v-0.455h-0.909q-0.227-.454-0.455-0.909l-1.818-.455-0.455-.909H627.29v-0.455h-0.91l-0.454-.909h-0.91v-0.455h-0.909v-0.455H623.2v-0.454h-0.91V386.78h-0.909l-0.455-.909-2.728-.91v-0.455h-0.909v-0.454l-2.728-.91v-0.454H613.2v-0.455h-0.909v-0.455l-2.728-.909v-0.455l-2.274-.455v-0.454h-0.909V379.05h-1.364V378.6H604.1v-0.454l-2.728-.455v-0.455h-0.909v-0.454l-4.092-.91c-5.742-2.48-12.824-3.892-19.1-5.911H575c-2.072-.647-5.134-1.187-7.275-1.819h-3.183v-0.454h-3.183v-0.455l-10-.455v-0.455H528.171ZM494.526,553.2l10.457,0.454v0.455l4.092,0.909v0.455l2.728,0.909v0.455l1.819,0.455q0.227,0.454.455,0.909h0.909l0.909,1.364h0.91l1.818,2.274q0.91,0.681,1.819,1.364v0.909l1.364,0.91v0.909l0.909,0.455V567.3h0.455v0.91h0.455v0.909h0.454v0.909h0.455v0.91h0.455q0.226,1.363.454,2.728H525.9v1.364h0.455q0.227,5.229.454,10.458h-0.454v2.728H525.9v1.365h-0.455v1.364h-0.454V592.3h-0.455v0.909h-0.455v0.91h-0.454v0.909H523.17v0.909h-0.455v0.91l-0.909.454v0.91l-1.364.909v0.91l-2.728,2.273-0.909,1.364H515.9l-0.909,1.364h-0.909l-0.455.91h-0.909V606.4H511.8v0.454h-0.909v0.455h-0.909v0.455h-0.91v0.454h-1.364v0.455h-1.364v0.455h-1.364v0.454h-2.728v0.455l-10.457-.455v-0.454h-1.364v-0.455H489.07v-0.455h-1.364v-0.454H486.8V607.31h-0.909v-0.455h-0.909V606.4h-0.91v-0.455h-0.909l-0.455-.91H481.8l-0.909-1.364h-0.91l-2.273-2.728-1.364-.909v-0.91l-1.364-.909v-0.91l-0.909-.454v-0.91h-0.455v-0.909h-0.455v-0.909H472.7v-0.91h-0.455V592.3h-0.455q-0.226-1.365-.454-2.728h-0.455v-1.365h-0.455q-0.226-5.227-.454-10.458h0.454v-2.728h0.455v-1.364h0.455V572.3h0.454v-1.364h0.455v-0.91H472.7v-0.909h0.454v-0.909h0.455V567.3h0.455v-0.909l0.909-.455v-0.909l1.364-.91V563.2l1.364-.909q1.137-1.365,2.273-2.729h0.91L481.8,558.2H482.7l0.455-.909h0.909v-0.455h0.91v-0.455h0.909v-0.454H486.8v-0.455Z"/>
</svg>
